<?xml version="1.0" encoding="UTF-8" standalone="no" ?>
<COLLADA version="1.4.1" xmlns="http://www.collada.org/2005/11/COLLADASchema">

  <asset>
    <contributor>
      <authoring_tool>ONSHAPE BY PTC INC, 1.206</authoring_tool>
    </contributor>
    <created>2025-11-10T20:10:05</created>
    <modified>2025-11-10T20:10:05</modified>
    <unit meter="1" name="meters"/>
    <up_axis>Z_UP</up_axis>
  </asset>

  <library_materials>
    <material id="ID9" name="ID9">
      <instance_effect url="#ID9-fx"/>
    </material>
  </library_materials>

  <library_effects>
    <effect id="ID9-fx" name="ID9">
      <profile_COMMON>
        <technique sid="COMMON">
          <lambert>
            <diffuse>
              <color sid="diffuse">0.01 1 1 1</color>
            </diffuse>
            <transparent opaque="A_ONE">
              <color sid="transparent">1 1 1 1</color>
            </transparent>
            <transparency>
              <float sid="transparency">1</float>
            </transparency>
          </lambert>
        </technique>
        <extra>
          <technique profile="OTHER">
            <double_sided>1</double_sided>
          </technique>
        </extra>
      </profile_COMMON>
    </effect>
  </library_effects>

  <library_geometries>
    <geometry id="ID3">
      <mesh>
        <source id="ID4">
          <float_array count="3735" id="ID5">0.00549051 0.0272829 -0.00820693 0.0025193 0.0280413 -0.0111818 0.00311637 0.0282695 -0.0114734 0.0097632 0.0303398 -0.0114767 0.00729782 0.03044 -0.013331 0.0104457 0.0312786 -0.0124082 0.00852484 0.029978 -0.0118326 0.0046552 0.0296363 -0.0133122 0.004423 0.0292452 -0.0127766 0.00909328 0.0294773 -0.0104734 0.00652765 0.0278397 -0.00893737 -0.00364456 0.0268464 -0.00801206 -0.0067575 0.0268828 -0.00578704 -0.00476019 0.0273003 -0.00869658 -0.00191533 0.0255054 -0.00314843 -0.00385642 0.0258066 -0.00365718 -0.00240631 0.0265118 -0.00748861 0.000480531 0.0277382 -0.0108512 0.00118214 0.0277718 -0.0108662 0.00167653 0.0263014 -0.00700955 9.73472e-05 0.0254017 -0.00291228 -0.00108106 0.0263061 -0.00714127 -0.00208218 0.0282783 -0.0117217 -0.0015164 0.0280481 -0.0113746 0.00212371 0.0254986 -0.0029555 0.00410546 0.0257931 -0.00327687 0.00345554 0.0254722 0 0.00573436 0.0259026 -1.24345e-17 -0.0025695 0.0285624 -0.0121406 -0.000888435 0.0278784 -0.0111091 -0.00600354 0.026153 -0.00297337 -0.00573436 0.0259026 2e-07 -0.00343411 0.02965 -0.0136986 -0.00707345 0.0292326 -0.0114999 -0.00742598 0.030005 -0.0125945 -0.0057211 0.0278605 -0.00952245 -0.00296434 0.0288922 -0.0126191 -0.00652088 0.0331488 -0.0169435 -0.00258337 0.0315923 -0.0163722 -0.0029751 0.0312443 -0.0159041 0.00401364 0.0299669 -0.0140047 0.00477018 0.0304511 -0.0144449 0.000654462 0.0298681 -0.0144168 -0.0157807 0.0559677 -0.0181189 -0.0151226 0.0588365 -0.0175152 -0.0125582 0.0571495 -0.0201182 -0.00107655 0.0631783 -0.0209461 0.00314801 0.059484 -0.0226652 -0.000941186 0.059491 -0.0228605 -0.00621382 0.0541998 -0.0236075 -0.00832755 0.0544144 -0.022907 -0.00541467 0.0551895 -0.0236075 0.0163395 0.0498725 -0.0186161 0.015431 0.0480482 -0.019278 0.0127581 0.0493535 -0.0212221 0.0109522 0.0582729 -0.0206197 0.0144428 0.0571037 -0.0188284 0.0137947 0.0532747 -0.0203113 0.0109511 0.065252 -0.0161559 0.00673369 0.0689348 -0.014481 0.0119067 0.0664327 -0.0142045 0.0111081 0.0619305 -0.0186505 0.0131608 0.064059 -0.0155789 0.0142564 0.0614802 -0.0166888 0.0151517 0.0587302 -0.0175434 0.00620447 0.071267 -0.0110809 0.00917356 0.0704188 -0.010605 0.00707328 0.0660693 -0.0174732 0.00278277 0.0693394 -0.0152253 0.0105535 0.0685657 -0.0125496 0.0024973 0.0716466 -0.0117793 -0.00128983 0.0716531 -0.0119602 -0.00128997 0.0733501 -0.00816549 0.00550051 0.0730003 -0.00736873 0.0078686 0.0719509 -0.0083549 0.00600518 0.0738454 -0.00298239 0.00676349 0.0731113 -0.00580376 0.00464164 0.0740858 -0.00344905 0.00345554 0.0745278 0 0.00573436 0.0740974 2e-07 0.00214149 0.0733443 -0.00800158 -0.00125378 0.0743895 -0.00414079 0.00172538 0.0743844 -0.00399849 -0.00600895 0.0738446 -0.00298104 -0.00573436 0.0740974 -1.95399e-17 -0.00345554 0.0745278 0 0.00115993 0.074743 0 -0.00115247 0.074743 0 0.00715087 0.0590741 -0.021911 0.00495506 0.05563 -0.0236075 0.0039323 0.0563865 -0.0236075 0.0158116 0.0558506 -0.0181474 0.00249959 0.0323478 -0.0171964 0.00184721 0.0324853 -0.0174181 0.00298794 0.0355957 -0.0199288 0.0161965 0.0528807 -0.0184902 -0.00118159 0.0664945 -0.0184418 -0.00125336 0.0693462 -0.0154181 0.00298988 0.0664875 -0.0182425 -0.00337653 0.0566969 -0.0236075 -0.00445975 0.05603 -0.0236075 -0.00499907 0.0590947 -0.0224914 0.00441391 0.0312318 -0.0155512 0.00406975 0.031581 -0.0160544 0.00737042 0.0338126 -0.0172398 0.0161721 0.046867 -0.0184685 0.0137155 0.0443012 -0.0198236 0.00362708 0.031889 -0.0165047 0.00649755 0.0344201 -0.0181277 -0.00890891 0.0583067 -0.0215684 0.00427433 0.0353246 -0.0194918 0.00309862 0.0321471 -0.016889 -0.0106793 0.0493933 -0.0223417 -0.007258 0.0481102 -0.0236075 -0.00927319 0.0454855 -0.022521 0.00592868 0.0387148 -0.0212382 0.00404452 0.0391119 -0.0218782 0.00875156 0.0315848 -0.0140661 -0.0011236 0.0356027 -0.0201252 -0.00391556 0.0387315 -0.0217084 -0.00197763 0.0391221 -0.0221659 -0.00683421 0.0469107 -0.0236075 -0.000952634 0.0425607 -0.0236075 3.36688e-05 0.0393185 -0.0223488 0.00024959 0.0357368 -0.0202501 0.00116026 0.0325556 -0.0175475 0.000458482 0.0325568 -0.017581 0.0104635 0.0365001 -0.0179397 0.00918502 0.0373899 -0.0192402 -0.0117847 0.0533181 -0.0215331 -0.00747298 0.050636 -0.0236075 0.00721365 0.0627512 -0.0199734 0.00279642 0.0569592 -0.0236075 0.00158009 0.0573317 -0.0236075 0.00311278 0.0631712 -0.020746 -0.0052338 0.0627724 -0.0205679 -0.00923938 0.061965 -0.0196224 -0.00683421 0.0530893 -0.0236075 -0.007258 0.0518898 -0.0236075 -0.00747298 0.049364 -0.0236075 -0.00621382 0.0458002 -0.0236075 -0.00527415 0.0424443 -0.0229926 -0.00760587 0.0417049 -0.022066 0.00464964 0.0308515 -0.0150094 0.00804904 0.0331241 -0.0162475 -0.00445975 0.04397 -0.0236075 -0.00337653 0.0433031 -0.0236075 -0.00572435 0.0381579 -0.0209896 -0.00244669 0.035336 -0.0198128 -0.000237918 0.0324888 -0.0175177 -0.000908911 0.0323536 -0.0173593 0.00279642 0.0430408 -0.0236075 0.00206049 0.0393151 -0.022252 0.00163337 0.0357345 -0.020184 0.00545552 0.034929 -0.0188856 0.00765877 0.0381352 -0.0203503 0.00964633 0.0416756 -0.0212419 0.0114575 0.0354916 -0.0164863 0.0132619 0.0395678 -0.0181344 0.0141731 0.0382979 -0.0166055 0.0116138 0.0407148 -0.0198109 0.0157599 0.0439049 -0.0181002 0.00851388 0.0323743 -0.0151794 0.0118013 0.0333842 -0.0140787 0.0130626 0.0357358 -0.0154746 0.000318309 0.0425068 -0.0236075 0.00158009 0.0426683 -0.0236075 0.0150858 0.0410334 -0.0174808 0.00741607 0.0424228 -0.0223865 0.00739212 0.0487325 -0.0236075 0.0075 0.05 -0.0236075 0.00972825 0.0503685 -0.022777 0.0113622 0.0454505 -0.0215353 -0.00153519 0.032155 -0.0171104 -0.00368162 0.0349445 -0.0193221 0.00869459 0.0463441 -0.0229042 0.00654761 0.0463423 -0.0236075 0.00707158 0.0475015 -0.0236075 0.0104879 0.0543824 -0.0220083 0.00707158 0.0524985 -0.0236075 0.00654761 0.0536577 -0.0236075 0.0068867 0.0551414 -0.0232316 -0.00209875 0.0318988 -0.0167782 -0.00479286 0.0344392 -0.018667 0.00498719 0.0429346 -0.0232115 0.00583527 0.0452884 -0.0236075 0.00739212 0.0512675 -0.0236075 0.00583527 0.0547117 -0.0236075 -0.00735198 0.0374179 -0.0200301 -0.00970405 0.040751 -0.0208291 0.0039323 0.0436135 -0.0236075 0.00495506 0.04437 -0.0236075 -0.00219617 0.0571712 -0.0236075 -0.000952634 0.0574393 -0.0236075 -0.00574844 0.0338349 -0.0178665 0.000318309 0.0574932 -0.0236075 -0.00504796 0.0712861 -0.0116184 -0.00525859 0.0689551 -0.0150538 -0.00421013 0.0741008 -0.00387187 -0.00875162 0.0365328 -0.0188576 -0.00532112 0.0660903 -0.0180652 -0.0091177 0.0681773 -0.0141428 -0.00469516 0.0730176 -0.00785574 -0.00326268 0.030865 -0.0153874 -0.00708794 0.0324008 -0.0159246 -0.00219617 0.0428287 -0.0236075 -0.00930963 0.0652864 -0.0171237 -0.0131249 0.0641347 -0.0155406 -0.0091566 0.0704438 -0.0105721 -0.00786068 0.0719628 -0.00833086 -0.00676109 0.0731158 -0.00578889 -0.009883 0.0355279 -0.0175057 -0.0107136 0.0344322 -0.0160134 -0.00541467 0.0448105 -0.0236075 -0.0129781 0.0607795 -0.0181366 -0.0118744 0.0664913 -0.0141634 -0.0105271 0.0686049 -0.012514 -0.00343784 0.0304651 -0.0148369 -0.00743333 0.0316122 -0.0148392 -0.0115083 0.0396099 -0.0193176 -0.0117828 0.0443445 -0.0210415 -0.0135298 0.0480973 -0.0206614 -0.0148957 0.0519037 -0.0196993 -0.0142233 0.0615704 -0.0166548 -0.00349554 0.0300562 -0.0142685 -0.0075471 0.0308059 -0.0137184 -0.0139409 0.0429797 -0.0192336 -0.0161867 0.0470177 -0.0184815 -0.0163397 0.0500158 -0.0186164 -0.0161838 0.0530129 -0.0184789 -0.0105322 0.0314035 -0.0125218 -0.0118823 0.0335256 -0.0141764 -0.0129668 0.0383145 -0.0175749 -0.0151298 0.0411914 -0.0175231 -0.0157951 0.0440591 -0.0181325 -0.0131349 0.0358872 -0.015552 -0.0142316 0.0384538 -0.0166644 -0.00325533 0.0292583 -0.0131434 -0.00785732 0.0280366 -0.00833265 -0.00915667 0.0295601 -0.010579 -0.000216345 0.0277741 -0.010933 0.000293066 0.0262353 -0.00698004 0.00186831 0.0278738 -0.0109775 0.00302955 0.0265026 -0.00722896 0.00431318 0.0268329 -0.00763195 -0.00345554 0.0254722 0 -0.00115993 0.025257 0 0.00673905 0.026862 -0.00572566 0.00631844 0.0264501 -0.0043638 0.00115247 0.025257 0 0.00364235 0.0285519 -0.0118439 0.00600271 0.0261496 -0.00294665 0.00580296 0.025965 -0.00148542 0.00408211 0.0288803 -0.0122825 0.00724577 0.0273777 -0.00702115 0.00843789 0.0286918 -0.00939784 0.00781732 0.0279897 -0.00824601 0.00298185 0.0236443 0 0.00366306 0.0241565 -0.0176463 -2e-07 0.0216986 -0.0162193 0.00993025 0.0305663 -0.0199853 0.0104457 0.0312786 -0.0124082 0.0118013 0.0333842 -0.0140787 0.00699469 0.0271251 -0.018906 0.00781732 0.0279897 -0.00824601 0.00843789 0.0286918 -0.00939784 0.0155917 0.0430515 -0.0219958 0.0142882 0.0386075 -0.0215407 0.0150858 0.0410334 -0.0174808 0.0130626 0.0357358 -0.0154746 0.012383 0.0344174 -0.0208673 0.015602 0.0569007 -0.021999 0.0162577 0.0523042 -0.0222266 0.0158116 0.0558506 -0.0181474 0.0157599 0.0439049 -0.0181002 0.0161721 0.046867 -0.0184685 0.0162551 0.0476536 -0.0222257 0.0131608 0.064059 -0.0155789 0.014307 0.0613451 -0.0215462 0.0142564 0.0614802 -0.0166888 0.00600518 0.0738454 -0.00298239 0.00367763 0.0758321 -0.0176518 0.00702336 0.0728513 -0.0189145 0.00917356 0.0704188 -0.010605 0.0078686 0.0719509 -0.0083549 0.00298185 0.0763557 0 0.00573436 0.0740974 2e-07 1.97605e-17 0.0783013 -0.0162194 3.22866e-10 0.0783013 0 0.0119067 0.0664327 -0.0142045 0.0124085 0.0655407 -0.0208745 0.0163395 0.0498725 -0.0186161 0.0161965 0.0528807 -0.0184902 0.00676349 0.0731113 -0.00580376 0.00995878 0.069401 -0.0199933 0.0105535 0.0685657 -0.0125496 0.0151517 0.0587302 -0.0175434 0.0141731 0.0382979 -0.0166055 0.00909328 0.0294773 -0.0104734 0.0097632 0.0303398 -0.0114767 0.00724577 0.0273777 -0.00702115 0.00673905 0.026862 -0.00572566 0.00631844 0.0264501 -0.0043638 0.00600271 0.0261496 -0.00294665 0.00580296 0.025965 -0.00148542 0.00573436 0.0259026 -1.24345e-17 8.66119e-18 0.0216987 0 -0.00298185 0.0763557 0 -0.00366306 0.0758435 -0.0176463 1.97605e-17 0.0783013 -0.0162194 -0.00993025 0.0694337 -0.0199853 -0.0105271 0.0686049 -0.012514 -0.0118744 0.0664913 -0.0141634 -0.00699469 0.0728749 -0.018906 -0.00676109 0.0731158 -0.00578889 -0.00786068 0.0719628 -0.00833086 -0.0155917 0.0569485 -0.0219958 -0.0142882 0.0613925 -0.0215407 -0.0151226 0.0588365 -0.0175152 -0.0131249 0.0641347 -0.0155406 -0.012383 0.0655826 -0.0208673 -0.015602 0.0430993 -0.021999 -0.0162577 0.0476958 -0.0222266 -0.0157951 0.0440591 -0.0181325 -0.0157807 0.0559677 -0.0181189 -0.0161838 0.0530129 -0.0184789 -0.0162551 0.0523464 -0.0222257 -0.00995878 0.030599 -0.0199933 -0.0105322 0.0314035 -0.0125218 -0.00915667 0.0295601 -0.010579 -0.0131349 0.0358872 -0.015552 -0.014307 0.0386548 -0.0215462 -0.0142316 0.0384538 -0.0166644 -0.00600354 0.026153 -0.00297337 -0.00367763 0.0241679 -0.0176518 -0.00702336 0.0271487 -0.0189145 -0.00298185 0.0236443 0 -0.00573436 0.0259026 2e-07 -2e-07 0.0216986 -0.0162193 8.66119e-18 0.0216987 0 -0.0118823 0.0335256 -0.0141764 -0.0124085 0.0344593 -0.0208745 -0.0163397 0.0500158 -0.0186164 -0.0161867 0.0470177 -0.0184815 -0.00785732 0.0280366 -0.00833265 -0.0067575 0.0268828 -0.00578704 -0.0151298 0.0411914 -0.0175231 -0.00600895 0.0738446 -0.00298104 -0.0142233 0.0615704 -0.0166548 -0.0091566 0.0704438 -0.0105721 -0.00573436 0.0740974 -1.95399e-17 3.22866e-10 0.0783013 0 0.00115247 0.025257 0 0.00345554 0.0254722 0 0.00298185 0.0236443 0 -0.00298185 0.0236443 0 -0.00573436 0.0259026 2e-07 -0.00345554 0.0254722 0 -0.00115993 0.025257 0 0.00573436 0.0259026 -1.24345e-17 8.66119e-18 0.0216987 0 0.0123947 0.0112694 -0.00409147 0.00692048 0.00725571 0 0.00756757 0.0112694 -0.00570299 0.0327344 0.0767233 -0.00172682 0.035631 0.0695983 -0.00409185 0.0280232 0.0767233 -0.00663169 0.0200025 0.0168435 -0.00663144 0.0175366 0.0104099 0 0.0225861 0.0232764 -0.0107171 0.0165642 0.0232764 -0.0138777 0.0146694 0.0168435 -0.00943045 0.0101133 0.0232764 -0.0160313 0.00254446 0.0112694 -0.00651932 0.00301143 0.0168435 -0.0123039 0.0224483 0.012972 0 0.0305029 0.0304014 -0.00943064 0.0327342 0.0232764 -0.0017267 0.0280231 0.0232764 -0.00663154 0.0270049 0.0161517 0 0.0311141 0.0198863 0 0.00139002 0.00672106 0 -0.00254455 0.0112694 -0.00651931 -0.0195349 0.0540232 -0.0208498 -0.0162577 0.0476958 -0.0222266 -0.0195349 0.0459765 -0.0208498 0.0347079 0.0241104 0 -0.0124085 0.0344593 -0.0208745 -0.0190289 0.038034 -0.0196622 -0.014307 0.0386548 -0.0215462 -0.015602 0.0430993 -0.021999 -0.0245849 0.0304014 -0.0138777 -0.0259468 0.038034 -0.0160314 -0.0180301 0.0304014 -0.0173179 -0.0165643 0.0232764 -0.0138776 -0.0101134 0.0232764 -0.0160313 -0.00895651 0.0168435 -0.0113377 -0.0162551 0.0523464 -0.0222257 -0.0190289 0.0619657 -0.0196623 -0.0259469 0.0619657 -0.0160315 -0.024585 0.0695983 -0.0138778 -0.0155917 0.0569485 -0.0219958 -0.0142882 0.0613925 -0.0215407 -0.0101134 0.0767233 -0.0160315 -0.0180301 0.0695983 -0.0173181 -0.0165644 0.0767233 -0.0138778 0.0377296 0.0287519 0 0.0356309 0.0304014 -0.00409176 0.0401397 0.0337586 0 -0.00993025 0.0694337 -0.0199853 -0.012383 0.0655826 -0.0208673 -0.00699469 0.0728749 -0.018906 0.00254448 0.0887304 -0.00651959 -0.00254457 0.0887304 -0.00651958 0.00138396 0.0932787 0 -0.00895656 0.0831562 -0.0113379 -0.00301156 0.0831562 -0.0123041 0.0146695 0.0831562 -0.00943067 0.0165643 0.0767233 -0.0138779 0.00895646 0.0831562 -0.011338 -0.0225863 0.0767233 -0.0107172 -0.0200027 0.0831562 -0.00663158 0.0200026 0.0831562 -0.00663164 0.0225862 0.0767233 -0.0107173 -0.030503 0.0695983 -0.00943065 -0.0280233 0.0767233 -0.0066316 0.0433013 0.05 1.77636e-17 0.0386047 0.0540232 -0.00651974 0.0429445 0.0555453 0 0.0418876 0.0390295 0 0.0386046 0.0459765 -0.00651973 0.0429445 0.0444547 0 0.041881 0.060996 0 0.0401312 0.0662601 0 0.0376048 0.0619657 -0.0057034 0.0377284 0.0712498 0 0.0376048 0.038034 -0.00570335 0.0346976 0.0759048 0 -0.00414831 0.00689889 0 -0.00962202 0.00778233 0 -0.00756766 0.0112694 -0.00570297 0.0266366 0.0540232 -0.0171225 0.0266366 0.0459765 -0.0171225 0.0195347 0.0540232 -0.0208498 0.0310959 0.0801327 0 0.0248177 0.0831562 -0.00301337 0.0305029 0.0695983 -0.00943074 -0.0248177 0.0831562 -0.0030133 0.0269876 0.0838611 0 0.00301145 0.0831562 -0.0123041 0.0101133 0.0767233 -0.0160315 1.97605e-17 0.0783013 -0.0162194 -0.00366306 0.0758435 -0.0176463 -0.00756773 0.0887304 -0.00570323 -0.00416414 0.0931004 0 -0.0390152 0.0687832 0 -0.0356311 0.0695983 -0.00409174 -0.0376049 0.0619657 -0.00570329 -0.0266367 0.0459765 -0.0171224 -0.00995878 0.030599 -0.0199933 -0.00367763 0.0241679 -0.0176518 -0.00301154 0.0168435 -0.0123039 -2e-07 0.0216986 -0.0162193 0.0248175 0.0168435 -0.0030132 0.0321926 0.038034 -0.011338 0.0330486 0.0459765 -0.0123042 0.0330486 0.0540232 -0.0123042 0.0321927 0.0619657 -0.011338 0.0245849 0.0695983 -0.0138779 0.0245848 0.0304014 -0.0138778 0.01803 0.0304014 -0.017318 0.0259467 0.038034 -0.0160315 0.0190288 0.0619657 -0.0196624 0.0259467 0.0619657 -0.0160316 0.0124085 0.0655407 -0.0208745 0.00995878 0.069401 -0.0199933 0.01803 0.0695983 -0.0173181 0.0123948 0.0887304 -0.00409172 0.00756764 0.0887304 -0.00570326 0.0224446 0.0870299 0 0.0123331 0.00849322 0 0.0190288 0.038034 -0.0196623 0.0155917 0.0430515 -0.0219958 0.0195347 0.0459765 -0.0208498 0.0162577 0.0523042 -0.0222266 0.014307 0.0613451 -0.0215462 0.015602 0.0569007 -0.021999 0.0175213 0.0895979 0 0.0123081 0.0915144 0 0.0089564 0.0168435 -0.0113377 0.00993025 0.0305663 -0.0199853 0.012383 0.0344174 -0.0208673 0.0142882 0.0386075 -0.0215407 0.0162551 0.0476536 -0.0222257 0.00702336 0.0728513 -0.0189145 0.00367763 0.0758321 -0.0176518 0.00689822 0.0927471 0 0.00366306 0.0241565 -0.0176463 0.00699469 0.0271251 -0.018906 -0.0149449 0.00935997 0 -0.0123948 0.0112694 -0.00409143 -0.0248176 0.0168435 -0.00301312 -0.0291008 0.0179367 0 -0.0280232 0.0232764 -0.00663146 -0.00702336 0.0271487 -0.0189145 -0.0146695 0.0168435 -0.00943041 -0.0225862 0.0232764 -0.0107171 -0.0146696 0.0831562 -0.00943063 -0.0123949 0.0887304 -0.00409168 -0.00964731 0.0922122 0 -0.0200259 0.0116078 0 -0.0247656 0.0144812 0 -0.0200026 0.0168435 -0.00663138 -0.030503 0.0304014 -0.00943055 -0.0321927 0.038034 -0.0113379 -0.0330487 0.0459765 -0.0123041 -0.0266367 0.0540232 -0.0171224 -0.0149665 0.0906314 0 -0.035631 0.0304014 -0.00409166 -0.0376048 0.038034 -0.00570324 -0.043212 0.0527672 0 -0.0386048 0.0540232 -0.00651963 -0.0386047 0.0459765 -0.00651961 -0.0330487 0.0540232 -0.0123041 -0.0321928 0.0619657 -0.011338 -0.0327345 0.0767233 -0.00172672 -0.0291199 0.0820465 0 -0.0200327 0.088388 0 -0.0329642 0.021923 0 -0.0327343 0.0232764 -0.0017266 -0.0390088 0.0312055 0 -0.0247779 0.0855112 0 -0.0362883 0.0263747 0 -0.0410901 0.036343 0 -0.0425001 0.0417117 0 -0.043212 0.0472214 0 -0.0425043 0.0582641 0 -0.0410984 0.0636334 0 -0.036293 0.0736169 0 -0.0329793 0.0780584 0 1.58243e-05 0.099999 0 -0.00588884 0.0996518 0 3.42407e-10 0.0998154 0.025 -0.00587919 0.0995399 0.025 -0.011702 0.0986103 0 -0.0173457 0.0968936 0 -0.0116951 0.09853 0.025 -0.0227608 0.0945187 0 -0.0172995 0.0967182 0.025 -0.0227608 0.0945187 0.025 -0.0278562 0.0915208 0 -0.0325493 0.0879528 0 -0.0278562 0.0915208 0.025 -0.0368013 0.083847 0 -0.0325493 0.0879528 0.025 -0.0368013 0.083847 0.025 -0.0405434 0.0792615 0 -0.0437027 0.0742887 0 -0.0405434 0.0792615 0.025 -0.0462633 0.0689642 0 -0.0437027 0.0742887 0.025 -0.0462633 0.0689642 0.025 -0.0481805 0.0633656 0 -0.0494175 0.0576013 0 -0.0481805 0.0633656 0.025 -0.0499695 0.0517217 0 -0.0494175 0.0576013 0.025 -0.0499695 0.0517217 0.025 -0.0498238 0.045807 0 -0.0489818 0.0399671 0 -0.0498238 0.045807 0.025 -0.0474584 0.0342647 0 -0.0489818 0.0399671 0.025 -0.0474584 0.0342647 0.025 -0.0452689 0.02877 0 -0.0424492 0.0235809 0 -0.0452689 0.02877 0.025 -0.039042 0.0187653 0 -0.0424492 0.0235809 0.025 -0.039042 0.0187653 0.025 -0.0350822 0.014374 0 -0.0306318 0.0104825 0 -0.0350822 0.014374 0.025 -0.0257671 0.00715227 0 -0.0306318 0.0104825 0.025 -0.0257671 0.00715227 0.025 -0.0205309 0.00441013 0 -0.015 0.00230304 0 -0.0205309 0.00441013 0.025 -0.015 0.00230304 0.025 0.00587919 0.0995399 0.025 0.0116951 0.09853 0.025 0.00590784 0.0996485 0 0.0117157 0.098608 0 0.0173751 0.0968831 0.025 0.0227815 0.094507 0.025 0.0173751 0.0968831 0 0.0278626 0.0915171 0.025 0.0227815 0.094507 0 0.0278626 0.0915171 0 0.0325722 0.087934 0.025 0.036819 0.0838264 0.025 0.0325722 0.087934 0 0.0405434 0.0792615 0.025 0.036819 0.0838264 0 0.0405434 0.0792615 0 0.0437166 0.0742654 0.025 0.046274 0.0689365 0.025 0.0437166 0.0742654 0 0.0481819 0.0633584 0.025 0.046274 0.0689365 0 0.0481819 0.0633584 0 0.0494221 0.057578 0.025 0.0499702 0.0516905 0.025 0.0494221 0.057578 0 0.0498217 0.0457933 0.025 0.0499702 0.0516905 0 0.0498217 0.0457933 0 0.048979 0.0399481 0.025 0.0474484 0.0342347 0.025 0.048979 0.0399481 0 0.0452597 0.028753 0.025 0.0474484 0.0342347 0 0.0452597 0.028753 0 0.0424426 0.0235687 0.025 0.0390228 0.0187408 0.025 0.0424426 0.0235687 0 0.0350645 0.0143581 0.025 0.0390228 0.0187408 0 0.0350645 0.0143581 0 0.0306263 0.0104775 0.025 0.025742 0.00713645 0.025 0.0306263 0.0104775 0 0.0205309 0.00441013 0.025 0.025742 0.00713645 0 0.0205309 0.00441013 0 0.015 0.00230304 0.025 0.015 0.00230304 0 -0.0200259 0.0116078 0 -0.0257671 0.00715227 0 -0.0247656 0.0144812 0 -0.0173457 0.0968936 0 -0.011702 0.0986103 0 -0.0149665 0.0906314 0 -0.039042 0.0187653 0 -0.0362883 0.0263747 0 -0.0329642 0.021923 0 0.0377296 0.0287519 0 0.0424426 0.0235687 0 0.0347079 0.0241104 0 -0.0474584 0.0342647 0 -0.0489818 0.0399671 0 -0.0410901 0.036343 0 0.048979 0.0399481 0 0.0474484 0.0342347 0 0.0418876 0.0390295 0 -0.043212 0.0527672 0 -0.0494175 0.0576013 0 -0.0425043 0.0582641 0 0.0498217 0.0457933 0 0.0429445 0.0444547 0 0.0433013 0.05 1.77636e-17 -0.0437027 0.0742887 0 -0.036293 0.0736169 0 -0.0390152 0.0687832 0 0.0437166 0.0742654 0 0.046274 0.0689365 0 0.0377284 0.0712498 0 -0.0325493 0.0879528 0 -0.0247779 0.0855112 0 -0.0291199 0.0820465 0 0.0278626 0.0915171 0 0.0269876 0.0838611 0 0.0224446 0.0870299 0 0.00590784 0.0996485 0 0.00689822 0.0927471 0 0.00138396 0.0932787 0 -0.00588884 0.0996518 0 1.58243e-05 0.099999 0 -0.00416414 0.0931004 0 -0.00964731 0.0922122 0 0.0117157 0.098608 0 0.0123081 0.0915144 0 -0.0200327 0.088388 0 -0.0227608 0.0945187 0 0.0175213 0.0895979 0 0.0173751 0.0968831 0 -0.0278562 0.0915208 0 -0.0329793 0.0780584 0 -0.0368013 0.083847 0 0.0227815 0.094507 0 0.0310959 0.0801327 0 0.0325722 0.087934 0 -0.0405434 0.0792615 0 -0.0410984 0.0636334 0 -0.0462633 0.0689642 0 0.0346976 0.0759048 0 0.036819 0.0838264 0 0.0405434 0.0792615 0 0.0481819 0.0633584 0 0.041881 0.060996 0 0.0401312 0.0662601 0 -0.0481805 0.0633656 0 -0.043212 0.0472214 0 -0.0498238 0.045807 0 -0.0499695 0.0517217 0 0.0494221 0.057578 0 0.0499702 0.0516905 0 0.0429445 0.0555453 0 -0.0425001 0.0417117 0 -0.0424492 0.0235809 0 -0.0390088 0.0312055 0 -0.0452689 0.02877 0 0.0401397 0.0337586 0 0.0452597 0.028753 0 -0.0291008 0.0179367 0 -0.0306318 0.0104825 0 -0.0350822 0.014374 0 0.0350645 0.0143581 0 0.0270049 0.0161517 0 0.0311141 0.0198863 0 0.0390228 0.0187408 0 0.0224483 0.012972 0 0.0306263 0.0104775 0 -0.0149449 0.00935997 0 -0.0205309 0.00441013 0 -0.00414831 0.00689889 0 0.00139002 0.00672106 0 -0.015 0.00230304 0 -0.00962202 0.00778233 0 0.0175366 0.0104099 0 0.025742 0.00713645 0 0.015 0.00230304 0 0.0205309 0.00441013 0 0.00692048 0.00725571 0 0.0123331 0.00849322 0 0.0447948 0.0524732 0.047075 0.0399 0.0567005 0.0543769 0.0405253 0.050863 0.0542719 0.0405929 0.0450184 0.0537645 0.0400981 0.0392259 0.0528569 0.0448311 0.0441277 0.0463469 0.0436089 0.035947 0.0450195 0.0494983 0.0538369 0.030933 0.0478357 0.0531567 0.039205 0.0495166 0.0454862 0.0302665 0.0390495 0.0335895 0.0515653 0.0374667 0.028191 0.0499115 0.0411625 0.0281609 0.0431301 0.035361 0.0230783 0.0479084 0.0375606 0.0209877 0.0407318 0.0439161 0.0287798 0.0360035 0.040058 0.021549 0.0342684 0.0327659 0.0183389 0.0455881 0.0350753 0.015117 0.0322732 0.0329043 0.014629 0.0378919 0.029108 0.00966415 0.0300738 0.0297238 0.0140442 0.0429883 0.0262725 0.0102445 0.0401409 0.0273244 0.00926325 0.03469 0.0223236 0.00534362 0.0277319 0.015 0.00230304 0.025 0.0205309 0.00441013 0.025 0.0209774 0.00504102 0.0312162 0.025742 0.00713645 0.025 0.0306263 0.0104775 0.025 0.0139512 0.00230304 0.0305103 0.0147357 0.00230304 0.0278028 0.0183386 0.00433725 0.0338641 0.0224493 0.00698715 0.0370771 -0.00163545 0.0122375 0.057731 -0.00217181 0.0182367 0.0635535 -0.00903782 0.0181497 0.0624683 0.0435011 0.0607493 0.0471835 0.0387224 0.0624552 0.0540763 0.0480905 0.06208 0.0314329 0.0453327 0.0699839 0.0317523 0.0437963 0.0693553 0.0393964 0.0370095 0.0680329 0.0533733 0.0409862 0.0687237 0.0466692 0.0373208 0.0761724 0.0455467 0.03479 0.0733518 0.0522807 0.0320864 0.0783597 0.0508098 0.0326077 0.0828864 0.0438473 0.0289353 0.0829805 0.0489799 0.0288734 0.089103 0.0367166 0.0361125 0.0839026 0.0318187 0.029909 0.0895268 0.0315639 0.0269792 0.0886773 0.0416189 0.0253957 0.0871296 0.0468251 0.0215009 0.0907746 0.0443666 0.0205934 0.0933824 0.038924 0.0173029 0.0938614 0.0416366 0.0136295 0.0968697 0.0358382 0.00628303 0.0990413 0.0324481 0.00826794 0.0981712 0.0355389 0.012872 0.0963365 0.0386806 0.0035409 0.099345 0.0322458 0.00706977 0.0992694 0.0297481 -0.00123985 0.0998362 0.028849 0.00679167 0.0991556 0.0311317 3.42407e-10 0.0998154 0.025 -0.00587919 0.0995399 0.025 0.00587919 0.0995399 0.025 -0.0494658 0.0512788 0.0321766 -0.0499695 0.0517217 0.025 -0.0498238 0.045807 0.025 -0.0325493 0.0879528 0.025 -0.0368013 0.083847 0.025 -0.0320367 0.0883312 0.0270894 0.0215587 0.00850158 0.0426948 -0.0270986 0.04082 0.0660048 -0.0188443 0.0326239 0.0679298 -0.0196804 0.040695 0.0700122 -0.0217391 0.0182608 0.056938 -0.0242224 0.0251541 0.0609994 -0.0302536 0.025369 0.0562735 -0.0452689 0.02877 0.025 -0.0441941 0.0270793 0.029639 -0.0472956 0.0347952 0.0306515 -0.0475631 0.0506908 0.0404038 -0.047174 0.0423521 0.0397011 -0.0439177 0.0418337 0.0474621 -0.039042 0.0187653 0.025 -0.0343912 0.0137763 0.0272554 -0.039852 0.0200068 0.0284963 -0.0424712 0.0265468 0.037089 -0.0382894 0.0195238 0.0352529 0.00404538 0.00230304 0.039444 0.00330463 0.00365482 0.0434717 0.00132946 0.00230304 0.0399407 -0.015 0.00230304 0.025 -0.0199114 0.00425188 0.0282627 -0.0205309 0.00441013 0.025 -0.0147453 0.00230304 0.0277513 -0.0257671 0.00715227 0.025 -0.0424492 0.0235809 0.025 -0.0306318 0.0104825 0.025 -0.0350822 0.014374 0.025 -0.0489818 0.0399671 0.025 -0.0474584 0.0342647 0.025 -0.0490694 0.0429379 0.0315054 0.00506516 0.0410086 0.0739234 0.00511173 0.0329274 0.0717161 0.0131343 0.0332411 0.0702397 -0.00760414 0.0121619 0.0567876 -0.0156234 0.0181578 0.0602418 0.00440531 0.0123936 0.0576551 0.0103444 0.0126258 0.0565621 0.00477711 0.0184163 0.0634662 0.0341292 0.0346947 0.0581805 0.0278548 0.0341376 0.0633731 0.0322613 0.026985 0.0554879 -0.0174792 0.0250405 0.0646422 0.00897846 0.00230304 0.037016 0.0137452 0.00421037 0.0396417 0.0105014 0.00398577 0.0415049 0.0212418 0.0132895 0.0514788 0.0258866 0.013702 0.0476348 0.0166256 0.00446613 0.037258 0.0177425 0.00816272 0.045853 -0.027209 0.0184557 0.052652 -0.0353992 0.0256791 0.0506006 0.0127051 0.00230304 0.0329738 -0.037929 0.033304 0.0529756 -0.0423083 0.0337262 0.0460992 -0.0397534 0.0497327 0.0553248 -0.0442943 0.0501704 0.0481945 -0.0393942 0.0413976 0.0545652 -0.0454607 0.034228 0.0385858 -0.0484735 0.0595839 0.0326464 -0.0494175 0.0576013 0.025 -0.0462633 0.0689642 0.025 -0.0481805 0.0633656 0.025 -0.0461205 0.0676199 0.0329015 -0.0413416 0.0665956 0.0477038 -0.0408622 0.0746635 0.0398993 -0.0443623 0.0670765 0.0405043 -0.0437027 0.0742887 0.025 -0.0424729 0.0751613 0.0329348 -0.0362151 0.0815582 0.0388761 -0.0317366 0.0879333 0.0323386 -0.0376329 0.0819964 0.0327454 -0.0251821 0.093114 0.0276542 -0.0405434 0.0792615 0.025 -0.0174617 0.0964757 0.030924 -0.0249493 0.0928053 0.0317257 -0.02403 0.0925212 0.0357007 -0.0278562 0.0915208 0.025 -0.0172995 0.0967182 0.025 -0.0227608 0.0945187 0.025 -0.0176206 0.0966865 0.0281445 -0.0116951 0.09853 0.025 -0.00901029 0.0991751 0.0257892 0.0414233 0.0221077 0.027475 0.0465415 0.0366062 0.0374296 0.0481448 0.0372622 0.0294522 0.0478604 0.0448086 0.0385069 0.0464682 0.0614162 0.0395043 0.0398949 0.076751 0.0388845 0.0348736 0.0833957 0.0379828 0.0220626 0.0937126 0.0351215 0.0146325 0.0970952 0.0332423 0.0151809 0.0973195 0.0305138 0.0228659 0.0940413 0.0311248 0.0350645 0.0143581 0.025 0.0424426 0.0235687 0.025 0.0454216 0.0293957 0.0285129 0.048979 0.0399481 0.025 0.0481819 0.0633584 0.025 0.0413023 0.0773268 0.0318821 0.0405434 0.0792615 0.025 0.0229801 0.0943589 0.027049 0.0152589 0.0975364 0.0277313 0.0390228 0.0187408 0.025 0.0452597 0.028753 0.025 0.0474484 0.0342347 0.025 0.0498217 0.0457933 0.025 0.0499702 0.0516905 0.025 0.0494221 0.057578 0.025 0.046274 0.0689365 0.025 0.0437166 0.0742654 0.025 0.036819 0.0838264 0.025 0.0325722 0.087934 0.025 0.0300563 0.0899363 0.0263091 0.0227815 0.094507 0.025 0.00710931 0.0993794 0.028337 0.0278626 0.0915171 0.025 0.0173751 0.0968831 0.025 0.00690916 0.0994824 0.0269391 0.0116951 0.09853 0.025 -0.00940508 0.0990606 0.0271441 -0.00956448 0.0989484 0.0285465 -0.00948389 0.0988415 0.0299561 -0.0184643 0.0040215 0.0317118 -0.026849 0.00821772 0.0307769 -0.0330329 0.0133565 0.033129 -0.0186455 0.0122585 0.0519801 -0.046617 0.0590101 0.040674 -0.0337793 0.0811704 0.0446816 -0.0305514 0.087567 0.0374633 -0.0142581 0.0959658 0.0385593 -0.0157559 0.0961101 0.0362075 -0.0202567 0.0920583 0.04291 -0.0380951 0.074223 0.0464944 -0.0168341 0.0962818 0.0336377 -0.00916563 0.0987431 0.0313322 -0.0139905 0.00230304 0.0304088 -0.0164539 0.00382771 0.0348686 -0.0249317 0.00791249 0.0353467 -0.0306992 0.0129849 0.0386911 -0.0356049 0.0190965 0.0416512 -0.0395112 0.0260755 0.0441439 -0.032449 0.0329738 0.0590172 -0.0434275 0.0585023 0.0482759 -0.0318942 0.0658746 0.0600821 -0.0294409 0.0735625 0.0578335 -0.0342512 0.0738524 0.0525303 -0.0221471 0.0867568 0.0506601 -0.0256867 0.0869702 0.0467578 -0.0261612 0.080589 0.0546632 -0.0285152 0.0872428 0.0423163 -0.0224507 0.0922698 0.0394649 -0.0303955 0.0808442 0.0499949 -0.0127613 0.00230304 0.0328827 -0.0139382 0.00367609 0.037642 -0.0222682 0.00765574 0.039529 -0.0274573 0.0126724 0.0437817 -0.0318756 0.018737 0.0475071 -0.0274107 0.0491528 0.0668083 -0.0269534 0.0575094 0.0664382 -0.0334522 0.057741 0.061346 -0.0389967 0.0580752 0.0552332 -0.0371453 0.0661911 0.0542929 -0.0179983 0.086609 0.053911 -0.0133597 0.0865308 0.0564168 -0.0142933 0.0917781 0.0484583 -0.00861886 0.0986561 0.0326354 -0.0110996 0.00230304 0.035089 -0.0109896 0.003571 0.0399525 -0.0189351 0.00745486 0.0432036 -0.0234005 0.0124279 0.0482542 -0.0102178 0.0250315 0.0670972 -0.0337335 0.0410564 0.0608059 -0.0340711 0.0493902 0.0615895 -0.0238028 0.0733616 0.0622513 -0.0257394 0.0656553 0.0649049 -0.0106953 0.0917175 0.0504019 -0.0175113 0.0918928 0.0459368 -0.0123839 0.0958528 0.0406257 -0.00785931 0.0985829 0.0338281 -0.00906166 0.00230304 0.036953 -0.00671674 0.00230304 0.0384117 -0.00769275 0.00351547 0.0417335 -0.0150285 0.00731563 0.0462648 -0.005957 0.00723625 0.0502146 -0.00105318 0.00729839 0.0509897 -0.0260258 0.0327448 0.0640502 -0.0118629 0.0573774 0.0730088 -0.0114476 0.0655302 0.0711277 -0.0188578 0.0655393 0.0686224 -0.0107109 0.073247 0.0679517 -0.00967356 0.0803113 0.06357 -0.015649 0.0803187 0.0615498 -0.0211981 0.0804121 0.0585521 -0.010187 0.0957745 0.0423471 -0.00836467 0.0865247 0.0581056 -0.00690882 0.0985256 0.034876 -0.00414432 0.00230304 0.0394158 -0.00414264 0.00351109 0.0429338 -0.0106605 0.00724206 0.0486244 -0.013329 0.0121689 0.0548521 -0.0119452 0.0490175 0.0735422 -0.00336379 0.0407907 0.0740293 -0.00358487 0.0491234 0.0748636 -0.019964 0.0490274 0.0708311 -0.0196873 0.057387 0.0703635 -0.017499 0.0732554 0.0656567 -0.00508579 0.0957299 0.0445682 -0.00278161 0.0917639 0.0523503 -0.00232819 0.0957648 0.0450041 -0.00773075 0.0957331 0.043674 -0.00320784 0.0984633 0.0368753 -0.00454915 0.0984649 0.0364218 -0.00579476 0.0984859 0.0357489 -0.00143162 0.00230304 0.0399312 -0.000441349 0.00355799 0.0435188 -0.0111109 0.0326143 0.0705443 -0.0116922 0.0406852 0.072713 0.00409735 0.0658302 0.0722506 -0.00363371 0.0733367 0.0690703 -0.00372175 0.0656281 0.0723488 0.00130651 0.0918696 0.0522989 0.00211365 0.0867269 0.0588625 0.00729551 0.0869295 0.0579088 -0.00682097 0.0917127 0.0517118 -0.00315695 0.0865907 0.0589287 -0.0026472 0.0251275 0.0682938 -0.00304828 0.0327165 0.0718187 0.0204123 0.0584236 0.0698595 0.0117848 0.0661307 0.0708358 0.0126678 0.0580115 0.0727006 -0.00370532 0.0574808 0.0742982 -0.00344367 0.0803903 0.0645547 0.00824131 0.0962508 0.0421155 0.00582457 0.0960835 0.0435036 0.0127007 0.0924759 0.0481191 -0.00180942 0.098481 0.0370963 0.00698754 0.0037988 0.0427939 0.00390985 0.00742668 0.0509273 0.00501481 0.0253255 0.0681975 0.0048764 0.0493421 0.0747573 0.00455075 0.0576942 0.0741944 0.0168036 0.0875086 0.0534736 0.0252828 0.0819188 0.0540167 0.0208562 0.0878684 0.0501197 0.00352894 0.0735219 0.0689803 0.00286146 0.0805532 0.0644755 0.000462698 0.0958369 0.044969 0.00532581 0.0920267 0.0515592 0.0032066 0.0959442 0.044464 0.00662416 0.00230304 0.038458 0.00878932 0.00761743 0.0500293 0.011609 0.0186834 0.0622088 0.0125478 0.02562 0.0668111 0.0349651 0.0511747 0.060722 0.0284591 0.050597 0.0661062 0.035039 0.0428341 0.0599417 0.0133522 0.0413325 0.0723983 0.0131952 0.0496673 0.0732263 0.010571 0.0737972 0.0676843 0.00906042 0.0807956 0.0633346 0.0103873 0.0964414 0.0403395 0.0158441 0.092755 0.0455176 -0.000394105 0.0985176 0.0370785 0.00916064 0.0922308 0.0501524 0.0160109 0.0129273 0.0544834 0.0134449 0.00786515 0.0483215 0.0181274 0.0190302 0.0598176 0.0197351 0.0260024 0.0641745 0.0207888 0.0336483 0.0674317 0.0212589 0.0417533 0.0694978 0.0211322 0.0500897 0.0703147 0.0339098 0.0594823 0.0604995 0.0319025 0.0675237 0.0592804 0.0258903 0.0669898 0.0642561 0.0191195 0.066521 0.0681451 0.0172899 0.0741547 0.0652196 0.0149749 0.0811103 0.0611649 0.0122396 0.0871926 0.0560951 0.000997376 0.098572 0.0368224 0.002325 0.0986426 0.0363354 0.00355057 0.0987275 0.0356315 0.0110286 0.00230304 0.0351671 0.0241447 0.0194468 0.0563614 0.0263699 0.0264618 0.0603636 0.0285578 0.0422586 0.0653054 0.0275616 0.0589186 0.0657531 0.0234922 0.0745841 0.061657 0.0204347 0.0814883 0.0580289 0.0294879 0.0199213 0.0519395 0.0289997 0.0750732 0.0570991 0.00463882 0.0988241 0.0347309 0.00115993 0.074743 0 0.00298185 0.0763557 0 0.00345554 0.0745278 0 0.00573436 0.0740974 2e-07 -0.00115247 0.074743 0 -0.00345554 0.0745278 0 -0.00298185 0.0763557 0 -0.00573436 0.0740974 -1.95399e-17 3.22866e-10 0.0783013 0 -0.000619345 0.0574744 0 0.000318309 0.0574932 -0.0236075 0.000619345 0.0574744 0 -0.00747298 0.049364 -0.0236075 -0.00747298 0.050636 -0.0236075 -0.0075 0.05 0 0.00158009 0.0573317 -0.0236075 0.00184114 0.0572705 0 0.00301272 0.0568683 0 0.00279642 0.0569592 -0.0236075 0.0039323 0.0563865 -0.0236075 0.00410211 0.0562787 0 0.00495506 0.05563 -0.0236075 0.00507961 0.0555179 0 0.00591855 0.0546066 0 0.00583527 0.0547117 -0.0236075 0.00654761 0.0536577 -0.0236075 0.00659605 0.0535696 0 0.00707158 0.0524985 -0.0236075 0.00709363 0.0524352 0 0.00739771 0.0512345 0 0.00739212 0.0512675 -0.0236075 0.0075 0.05 -0.0236075 0.0075 0.05 0 -0.000952634 0.0574393 -0.0236075 -0.00184114 0.0572705 0 -0.00219617 0.0571712 -0.0236075 -0.00301272 0.0568683 0 -0.00337653 0.0566969 -0.0236075 -0.00445975 0.05603 -0.0236075 -0.00410211 0.0562787 0 -0.00507961 0.0555179 0 -0.00541467 0.0551895 -0.0236075 -0.00591855 0.0546066 0 -0.00621382 0.0541998 -0.0236075 -0.00683421 0.0530893 -0.0236075 -0.00659605 0.0535696 0 -0.00709363 0.0524352 0 -0.007258 0.0518898 -0.0236075 -0.00739771 0.0512345 0 -0.00621382 0.0458002 -0.0236075 -0.00683421 0.0469107 -0.0236075 -0.00659605 0.0464304 0 -0.007258 0.0481102 -0.0236075 -0.00739771 0.0487655 0 -0.00709363 0.0475648 0 -0.00410211 0.0437213 0 -0.00337653 0.0433031 -0.0236075 -0.00445975 0.04397 -0.0236075 -0.00591855 0.0453934 0 -0.00507961 0.0444821 0 -0.00541467 0.0448105 -0.0236075 -0.000952634 0.0425607 -0.0236075 -0.000619345 0.0425256 0 0.000318309 0.0425068 -0.0236075 -0.00219617 0.0428287 -0.0236075 -0.00301272 0.0431317 0 -0.00184114 0.0427295 0 0.0039323 0.0436135 -0.0236075 0.00279642 0.0430408 -0.0236075 0.00301272 0.0431317 0 0.00184114 0.0427295 0 0.00158009 0.0426683 -0.0236075 0.000619345 0.0425256 0 0.00591855 0.0453934 0 0.00583527 0.0452884 -0.0236075 0.00507961 0.0444821 0 0.00410211 0.0437213 0 0.00495506 0.04437 -0.0236075 0.00654761 0.0463423 -0.0236075 0.00659605 0.0464304 0 0.00709363 0.0475648 0 0.00707158 0.0475015 -0.0236075 0.00739771 0.0487655 0 0.00739212 0.0487325 -0.0236075 -0.00507961 0.0555179 0 -0.00410211 0.0562787 0 -0.00301272 0.0568683 0 -0.00301272 0.0431317 0 -0.00410211 0.0437213 0 0.00739771 0.0512345 0 -0.00184114 0.0572705 0 -0.00591855 0.0546066 0 -0.000619345 0.0574744 0 -0.00659605 0.0535696 0 -0.00709363 0.0524352 0 0.000619345 0.0574744 0 -0.00739771 0.0512345 0 0.00184114 0.0572705 0 -0.0075 0.05 0 0.00301272 0.0568683 0 0.00410211 0.0562787 0 -0.00739771 0.0487655 0 0.00659605 0.0535696 0 -0.00591855 0.0453934 0 0.00591855 0.0546066 0 -0.00659605 0.0464304 0 -0.00709363 0.0475648 0 0.00507961 0.0555179 0 0.0075 0.05 0 -0.00507961 0.0444821 0 0.00709363 0.0524352 0 0.00709363 0.0475648 0 0.00659605 0.0464304 0 0.000619345 0.0425256 0 0.00739771 0.0487655 0 -0.000619345 0.0425256 0 -0.00184114 0.0427295 0 0.00301272 0.0431317 0 0.00507961 0.0444821 0 0.00410211 0.0437213 0 0.00591855 0.0453934 0 0.00184114 0.0427295 0 0.015 0.00230304 0.025 0.0147357 0.00230304 0.0278028 0.0139512 0.00230304 0.0305103 -0.015 0.00230304 0 0.015 0.00230304 0 0.0127051 0.00230304 0.0329738 0.0110286 0.00230304 0.0351671 0.00897846 0.00230304 0.037016 0.00662416 0.00230304 0.038458 0.00404538 0.00230304 0.039444 0.00132946 0.00230304 0.0399407 -0.00143162 0.00230304 0.0399312 -0.015 0.00230304 0.025 -0.0139905 0.00230304 0.0304088 -0.0127613 0.00230304 0.0328827 -0.00671674 0.00230304 0.0384117 -0.00906166 0.00230304 0.036953 -0.0110996 0.00230304 0.035089 -0.0147453 0.00230304 0.0277513 -0.00414432 0.00230304 0.0394158</float_array>
          <technique_common>
            <accessor count="1245" source="#ID5" stride="3">
              <param name="X" type="float"/>
              <param name="Y" type="float"/>
              <param name="Z" type="float"/>
            </accessor>
          </technique_common>
        </source>
        <source id="ID6">
          <float_array count="3735" id="ID7">0.221657 -0.917112 -0.331322 0.101707 -0.886496 -0.451421 0.125811 -0.877282 -0.463194 0.393959 -0.793944 -0.463087 0.29462 -0.789656 -0.538185 0.421701 -0.755802 -0.50093 0.344156 -0.80831 -0.477694 0.187935 -0.822104 -0.537425 0.178561 -0.837891 -0.515806 0.367392 -0.828245 -0.423123 0.263528 -0.894633 -0.36081 -0.147134 -0.934734 -0.323455 -0.273007 -0.933238 -0.233524 -0.192174 -0.916409 -0.351089 -0.0773236 -0.988871 -0.127105 -0.155687 -0.97671 -0.147644 -0.0971452 -0.948243 -0.302323 0.0193995 -0.898729 -0.438074 0.0477244 -0.897376 -0.438679 0.0676834 -0.956734 -0.282982 0.00392992 -0.993057 -0.117572 -0.0436434 -0.956545 -0.2883 -0.0840598 -0.876925 -0.473218 -0.0612187 -0.886219 -0.459204 0.0857362 -0.989148 -0.119317 0.165742 -0.977256 -0.132291 0.138945 -0.9903 -1.55212e-06 0.231502 -0.972835 -3.55982e-09 -0.103733 -0.865456 -0.490127 -0.0358669 -0.89307 -0.448487 -0.242714 -0.962645 -0.120016 -0.231502 -0.972835 8.08145e-06 -0.138639 -0.821549 -0.553024 -0.285562 -0.838401 -0.464261 -0.299794 -0.807216 -0.508454 -0.230967 -0.893794 -0.384431 -0.119673 -0.852142 -0.509444 -0.263254 -0.680299 -0.684026 -0.104293 -0.743138 -0.660961 -0.120108 -0.757184 -0.642064 0.162034 -0.808756 -0.565384 0.192577 -0.789206 -0.583153 0.0264212 -0.812745 -0.58202 -0.637431 0.241051 -0.731831 -0.610491 0.356764 -0.707121 -0.506988 0.288632 -0.812191 -0.0434613 0.532022 -0.845614 0.127088 0.382879 -0.915015 -0.0379965 0.383159 -0.9229 -0.250858 0.16955 -0.95306 -0.336191 0.178212 -0.924779 -0.218596 0.209507 -0.95306 0.659642 -0.00515267 -0.751562 0.622964 -0.078798 -0.778272 0.515058 -0.0261004 -0.856758 0.442153 0.333987 -0.832438 0.583069 0.286781 -0.760123 0.556905 0.132202 -0.819987 0.442108 0.615739 -0.652231 0.271846 0.764415 -0.584611 0.480716 0.66337 -0.573456 0.448445 0.481645 -0.752937 0.531321 0.56757 -0.628938 0.575571 0.463438 -0.673753 0.611712 0.352415 -0.708246 0.250481 0.858569 -0.447346 0.370356 0.824317 -0.42818 0.285555 0.648733 -0.705411 0.112343 0.78075 -0.614662 0.426061 0.749514 -0.506657 0.100818 0.873896 -0.475543 -0.0520715 0.874156 -0.482846 -0.0520773 0.942666 -0.329649 0.222061 0.928543 -0.297483 0.31765 0.886173 -0.337336 0.242207 0.962715 -0.120482 0.272953 0.933046 -0.234356 0.187388 0.972367 -0.139242 0.139023 0.990289 6.47659e-05 0.231502 0.972835 8.05992e-06 0.0864542 0.942431 -0.323032 -0.0506164 0.984628 -0.167168 0.0696551 0.984424 -0.161423 -0.242736 0.962609 -0.120261 -0.231502 0.972835 -2.93215e-08 -0.138945 0.9903 1.55488e-06 0.046032 0.99894 -9.74752e-05 -0.0471559 0.998888 -3.22559e-05 0.288688 0.366329 -0.884569 0.200041 0.22729 -0.95306 0.158751 0.257828 -0.95306 0.638347 0.236171 -0.732623 0.100911 -0.712637 -0.694237 0.0745738 -0.707086 -0.703184 0.120626 -0.581514 -0.804544 0.654522 0.116398 -0.747029 -0.047702 0.665901 -0.744514 -0.0505993 0.781026 -0.622445 0.120704 0.665615 -0.736469 -0.136314 0.270362 -0.95306 -0.180044 0.243436 -0.95306 -0.201818 0.367162 -0.907999 0.178194 -0.757691 -0.627815 0.1643 -0.743594 -0.648131 0.297551 -0.653501 -0.695989 0.653602 -0.126611 -0.746173 0.55371 -0.230065 -0.800297 0.146429 -0.731157 -0.666309 0.262312 -0.628977 -0.731833 -0.359662 0.335348 -0.870738 0.172559 -0.592459 -0.786903 0.125095 -0.720738 -0.681827 -0.431136 -0.0244939 -0.901955 -0.293013 -0.0762946 -0.95306 -0.374368 -0.182253 -0.909193 0.239347 -0.455595 -0.857407 0.163281 -0.439565 -0.883245 0.353309 -0.743441 -0.567863 -0.0453608 -0.581232 -0.812472 -0.158075 -0.454921 -0.87639 -0.079839 -0.439152 -0.894858 -0.275904 -0.124716 -0.95306 -0.0384588 -0.30033 -0.95306 0.00135927 -0.431223 -0.902244 0.0100762 -0.575819 -0.817515 0.0468407 -0.704246 -0.708409 0.0185094 -0.704198 -0.709762 0.422423 -0.545003 -0.724245 0.370808 -0.509084 -0.776746 -0.475761 0.133955 -0.869314 -0.301692 0.0256777 -0.95306 0.291222 0.51478 -0.806344 0.112894 0.280948 -0.95306 0.06379 0.295987 -0.95306 0.125666 0.531735 -0.837536 -0.211294 0.515633 -0.830348 -0.373003 0.48304 -0.792175 -0.275904 0.124716 -0.95306 -0.293013 0.0762946 -0.95306 -0.301692 -0.0256778 -0.95306 -0.250858 -0.169551 -0.95306 -0.212923 -0.305031 -0.928235 -0.307056 -0.33488 -0.890826 0.187711 -0.773042 -0.605946 0.324948 -0.681297 -0.655929 -0.180045 -0.243436 -0.95306 -0.136314 -0.270362 -0.95306 -0.231098 -0.478076 -0.847371 -0.0987752 -0.591998 -0.799864 -0.00960499 -0.706943 -0.707205 -0.0366936 -0.712403 -0.70081 0.112894 -0.280948 -0.95306 0.083184 -0.431362 -0.898336 0.0659409 -0.575914 -0.814847 0.220245 -0.608433 -0.762431 0.309192 -0.478993 -0.821563 0.389432 -0.336063 -0.857557 0.46255 -0.585717 -0.66557 0.535397 -0.421156 -0.732105 0.572254 -0.472492 -0.670281 0.468861 -0.374853 -0.799784 0.636509 -0.246157 -0.730933 0.343714 -0.711568 -0.612807 0.476598 -0.670844 -0.568176 0.527408 -0.57589 -0.624653 0.0128505 -0.30251 -0.95306 0.06379 -0.295986 -0.95306 0.609073 -0.362039 -0.705662 0.299394 -0.305901 -0.903763 0.298427 -0.0511704 -0.95306 0.302782 2.37274e-08 -0.95306 0.392739 0.0148749 -0.91953 0.458704 -0.183668 -0.8694 -0.0619773 -0.720421 -0.690763 -0.14863 -0.607807 -0.780051 0.351009 -0.147591 -0.924667 0.264333 -0.147666 -0.95306 0.285487 -0.100869 -0.95306 0.423408 0.176922 -0.888495 0.285487 0.100869 -0.95306 0.264333 0.147665 -0.95306 0.278023 0.207562 -0.937881 -0.0847286 -0.730765 -0.677351 -0.193492 -0.628204 -0.753605 0.201338 -0.285236 -0.937072 0.235576 -0.190214 -0.95306 0.298427 0.0511705 -0.95306 0.235576 0.190214 -0.95306 -0.296807 -0.50795 -0.808636 -0.391762 -0.373392 -0.840893 0.158751 -0.257828 -0.95306 0.200041 -0.22729 -0.95306 -0.0886615 0.289511 -0.95306 -0.0384588 0.30033 -0.95306 -0.23207 -0.652601 -0.721287 0.0128505 0.30251 -0.95306 -0.203791 0.85934 -0.469045 -0.212294 0.765237 -0.607736 -0.169967 0.972974 -0.156311 -0.353311 -0.543686 -0.761299 -0.214819 0.649582 -0.729312 -0.36809 0.733836 -0.570959 -0.189548 0.929242 -0.317144 -0.131718 -0.7725 -0.621204 -0.286147 -0.710498 -0.642893 -0.0886616 -0.28951 -0.95306 -0.375839 0.617128 -0.691302 -0.529858 0.570641 -0.627391 -0.369637 0.82536 -0.426789 -0.31733 0.886686 -0.336289 -0.27298 0.933208 -0.233675 -0.398987 -0.584254 -0.706723 -0.432518 -0.628487 -0.646476 -0.218596 -0.209507 -0.95306 -0.523937 0.43518 -0.732194 -0.479341 0.665803 -0.571785 -0.424975 0.751111 -0.505201 -0.138789 -0.788644 -0.598981 -0.300091 -0.742332 -0.599073 -0.464603 -0.419459 -0.779871 -0.475684 -0.228317 -0.849468 -0.54621 -0.0768129 -0.834119 -0.601352 0.0768549 -0.795279 -0.574174 0.467149 -0.672381 -0.141118 -0.805152 -0.576035 -0.304684 -0.774883 -0.553826 -0.562809 -0.283418 -0.776479 -0.654084 -0.120498 -0.746763 -0.659648 0.000635958 -0.751575 -0.654001 0.12175 -0.746633 -0.425155 -0.750792 -0.505524 -0.479531 -0.665101 -0.572443 -0.523482 -0.471755 -0.709516 -0.610739 -0.355556 -0.707515 -0.637643 -0.239818 -0.732051 -0.530215 -0.569735 -0.627913 -0.57447 -0.46608 -0.67287 -0.131421 -0.837364 -0.530613 -0.317148 -0.886807 -0.336141 -0.369491 -0.825485 -0.426674 -0.00873405 -0.89728 -0.441375 0.0118314 -0.959403 -0.281791 0.0754257 -0.893258 -0.443171 0.122306 -0.948615 -0.29184 0.174127 -0.93528 -0.308109 -0.139023 -0.990289 -6.46378e-05 -0.0460321 -0.99894 9.7458e-05 0.271942 -0.934107 -0.231285 0.254966 -0.950746 -0.176278 0.0471559 -0.998888 3.23158e-05 0.147045 -0.865882 -0.478148 0.241907 -0.962966 -0.119066 0.233955 -0.970396 -0.0599755 0.164799 -0.852625 -0.495856 0.292573 -0.913139 -0.283863 0.34072 -0.860153 -0.379536 0.315846 -0.888358 -0.33326 -0.591245 0.806492 0 -0.612009 0.790851 0 -0.499994 0.866029 0 -0.804083 0.594518 0 -0.81964 0.572879 0 -0.861094 0.508445 0 -0.714254 0.699887 0 -0.739186 0.673502 0 -0.758192 0.652031 0 -0.977176 0.21243 0 -0.937335 0.348428 0 -0.961619 0.274389 0 -0.899709 0.436489 0 -0.879098 0.476642 0 -0.977409 -0.211359 -0 -0.997504 -0.0706076 -0 -0.983845 -0.179021 -0 -0.982447 0.186544 0 -0.995389 0.0959225 0 -0.997423 0.0717444 0 -0.902729 -0.430209 -0 -0.937739 -0.34734 -0 -0.936266 -0.351292 -0 -0.683776 -0.729692 -0 -0.612457 -0.790504 -0 -0.714776 -0.699354 -0 -0.78075 -0.624844 -0 -0.740805 -0.67172 -0 -0.591245 -0.806492 -0 -0.675473 -0.737385 -0 -0.5 -0.866025 -0 -0.5 -0.866025 -0 -0.864375 -0.502848 -0 -0.879562 -0.475785 -0 -0.999992 0.00390281 0 -0.996103 -0.0881961 -0 -0.706984 -0.707229 -0 -0.804578 -0.593847 -0 -0.822947 -0.568118 -0 -0.963658 -0.267138 -0 -0.933684 0.358097 0 -0.778226 0.627984 0 -0.798782 0.601621 0 -0.721687 0.692219 0 -0.7062 0.708013 0 -0.693332 0.720619 0 -0.683658 0.729802 0 -0.677561 0.735466 0 -0.675473 0.737385 0 -0.5 0.866025 0 0.591245 -0.806492 0 0.612009 -0.790851 0 0.499994 -0.866029 0 0.804083 -0.594518 0 0.822122 -0.569312 0 0.863333 -0.504635 0 0.714254 -0.699887 0 0.706877 -0.707337 0 0.740509 -0.672047 0 0.977176 -0.21243 0 0.937335 -0.348428 0 0.962747 -0.270406 0 0.901621 -0.432526 0 0.879098 -0.476642 0 0.977409 0.211359 0 0.997504 0.0706076 0 0.983338 0.181788 0 0.983176 -0.182662 0 0.995736 -0.0922434 0 0.997423 -0.0717444 0 0.804578 0.593847 0 0.822296 0.56906 0 0.780234 0.625488 0 0.901942 0.431856 0 0.937739 0.34734 0 0.935506 0.35331 0 0.683726 0.729739 0 0.612457 0.790504 0 0.714776 0.699354 0 0.591245 0.806492 0 0.675473 0.737385 0 0.5 0.866025 0 0.5 0.866025 0 0.86363 0.504125 0 0.879562 0.475785 0 1 -0.000481995 0 0.995823 0.0913084 0 0.740458 0.672102 0 0.706801 0.707412 0 0.96299 0.269537 0 0.68385 -0.729623 0 0.93522 -0.354066 0 0.780167 -0.625571 0 0.675473 -0.737385 0 0.5 -0.866025 0 0 0 -1 0 0 -1 0 0 -1 0 0 -1 0 0 -1 0 0 -1 0 0 -1 0 0 -1 0 0 -1 0.247894 -0.774612 -0.581829 0.138929 -0.85464 -0.500289 0.151351 -0.774612 -0.61406 0.654688 0.534467 -0.534536 0.712621 0.391966 -0.581837 0.560464 0.534467 -0.632634 0.40005 -0.66313 -0.632629 0.350422 -0.791635 -0.500517 0.451722 -0.534473 -0.714343 0.331284 -0.534473 -0.777554 0.293388 -0.66313 -0.688609 0.202265 -0.534473 -0.820626 0.0508891 -0.774612 -0.630386 0.0602285 -0.66313 -0.746077 0.448922 -0.740537 -0.500074 0.610057 -0.391973 -0.688613 0.654685 -0.534473 -0.534534 0.560461 -0.534473 -0.632631 0.539813 -0.676914 -0.50039 0.621942 -0.602306 -0.500416 0.0280365 -0.865565 -0.500012 -0.0508911 -0.774612 -0.630386 -0.390698 0.0804636 -0.916996 -0.325161 -0.0461088 -0.944534 -0.390697 -0.0804708 -0.916995 0.693951 -0.51788 -0.500233 -0.248026 -0.310849 -0.917527 -0.380578 -0.239321 -0.893245 -0.286044 -0.226962 -0.930949 -0.31201 -0.138071 -0.939993 -0.491698 -0.391973 -0.777554 -0.518936 -0.239321 -0.820628 -0.360602 -0.391973 -0.846359 -0.331286 -0.534473 -0.777553 -0.202268 -0.534473 -0.820626 -0.17913 -0.66313 -0.726754 -0.325108 0.0469153 -0.944513 -0.380579 0.239314 -0.893246 -0.518937 0.239314 -0.820629 -0.491699 0.391966 -0.777556 -0.31188 0.138938 -0.939908 -0.28587 0.22782 -0.930794 -0.202268 0.534467 -0.82063 -0.360603 0.391966 -0.846362 -0.331288 0.534467 -0.777556 0.754578 -0.424967 -0.500015 0.712618 -0.391973 -0.581835 0.802689 -0.324933 -0.50011 -0.19878 0.388704 -0.899664 -0.24782 0.311646 -0.917312 -0.140019 0.457555 -0.878088 0.0508896 0.774607 -0.630392 -0.0508914 0.774607 -0.630392 0.0273147 0.865521 -0.500127 -0.179131 0.663124 -0.726759 -0.0602312 0.663124 -0.746082 0.29339 0.663124 -0.688613 0.331285 0.534467 -0.777557 0.179129 0.663124 -0.726759 -0.451726 0.534467 -0.714345 -0.400054 0.663124 -0.632632 0.400052 0.663124 -0.632633 0.451724 0.534467 -0.714346 -0.610061 0.391966 -0.688613 -0.560466 0.534467 -0.632632 0.866025 -2.95636e-08 -0.5 0.772093 0.0804636 -0.630395 0.858935 0.110789 -0.499957 0.837669 -0.219598 -0.500087 0.772093 -0.0804708 -0.630395 0.858935 -0.110789 -0.499957 0.837768 0.219757 -0.499851 0.802832 0.325094 -0.499774 0.752096 0.239314 -0.614068 0.754601 0.424991 -0.49996 0.752095 -0.239321 -0.614067 0.694137 0.518074 -0.499774 -0.0819043 -0.862011 -0.500229 -0.19136 -0.844659 -0.499933 -0.151353 -0.774612 -0.614059 0.532732 0.0804636 -0.84245 0.532732 -0.0804708 -0.84245 0.390695 0.0804636 -0.916997 0.622312 0.602716 -0.49946 0.496353 0.663124 -0.560268 0.610059 0.391966 -0.688615 -0.496355 0.663124 -0.560266 0.540139 0.677415 -0.499359 0.0602289 0.663124 -0.746082 0.202266 0.534467 -0.82063 4.02072e-06 0.566028 -0.824386 -0.0732154 0.516847 -0.852941 -0.151354 0.774607 -0.614065 -0.0838305 0.861896 -0.500108 -0.780229 0.375717 -0.50008 -0.712622 0.391966 -0.581835 -0.752098 0.239314 -0.614066 -0.532735 -0.0804708 -0.842448 -0.199024 -0.388021 -0.899905 -0.073505 -0.516619 -0.853055 -0.0602308 -0.66313 -0.746077 -4.03779e-06 -0.566028 -0.824386 0.49635 -0.66313 -0.560264 0.643852 -0.239321 -0.72676 0.660972 -0.0804708 -0.746084 0.660972 0.0804636 -0.746084 0.643853 0.239314 -0.726761 0.491697 0.391966 -0.777558 0.491696 -0.391973 -0.777556 0.360599 -0.391973 -0.84636 0.518934 -0.239321 -0.82063 0.380576 0.239314 -0.893247 0.518935 0.239314 -0.820631 0.248026 0.310849 -0.917527 0.199024 0.388021 -0.899905 0.3606 0.391966 -0.846363 0.247896 0.774607 -0.581834 0.151353 0.774607 -0.614065 0.448932 0.740671 -0.499866 0.246572 -0.82979 -0.50065 0.380575 -0.239321 -0.893246 0.31188 -0.138938 -0.939908 0.390695 -0.0804708 -0.916996 0.325161 0.0461088 -0.944534 0.286045 0.226962 -0.930949 0.31201 0.138071 -0.939993 0.350498 0.79214 -0.499666 0.245596 0.830647 -0.499708 0.179128 -0.66313 -0.726755 0.19878 -0.388704 -0.899664 0.24782 -0.311646 -0.917312 0.28587 -0.22782 -0.930793 0.325108 -0.0469154 -0.944513 0.140356 0.457004 -0.878321 0.073505 0.516619 -0.853055 0.136629 0.855094 -0.500147 0.0732154 -0.516847 -0.852941 0.140019 -0.457555 -0.878088 -0.298769 -0.813102 -0.499603 -0.247895 -0.774612 -0.581829 -0.496352 -0.66313 -0.560262 -0.582451 -0.641401 -0.499355 -0.560463 -0.534473 -0.632629 -0.140356 -0.457004 -0.878321 -0.29339 -0.66313 -0.688608 -0.451724 -0.534473 -0.714342 -0.293392 0.663124 -0.688613 -0.247897 0.774607 -0.581834 -0.193182 0.843907 -0.500501 -0.400588 -0.767905 -0.49985 -0.495547 -0.710567 -0.499528 -0.400052 -0.66313 -0.632628 -0.610059 -0.391973 -0.688611 -0.643854 -0.239321 -0.726758 -0.660974 -0.0804708 -0.746082 -0.532735 0.0804636 -0.842448 -0.299039 0.812349 -0.500663 -0.71262 -0.391973 -0.581833 -0.752097 -0.239321 -0.614065 -0.864254 0.0554502 -0.499991 -0.772095 0.0804636 -0.630393 -0.772095 -0.0804708 -0.630392 -0.660974 0.0804636 -0.746082 -0.643855 0.239314 -0.726759 -0.65469 0.534467 -0.534534 -0.582058 0.640914 -0.500437 -0.40049 0.767705 -0.500238 -0.659584 -0.561546 -0.499615 -0.654687 -0.534473 -0.534532 -0.780343 -0.375837 -0.499811 -0.495378 0.710165 -0.500266 -0.725842 -0.472485 -0.499911 -0.821995 -0.272992 -0.499799 -0.850096 -0.165614 -0.499909 -0.864251 -0.0555083 -0.499989 -0.850038 0.165479 -0.500052 -0.821863 0.272822 -0.50011 -0.725763 0.472399 -0.500106 -0.659293 0.56124 -0.500342 8.74228e-08 1 0 -0.117929 0.993022 0 8.74228e-08 1 0 -0.117929 0.993022 0 -0.234212 0.972185 0 -0.347227 0.937781 0 -0.234212 0.972185 0 -0.455396 0.890289 0 -0.347227 0.937781 0 -0.455396 0.890289 0 -0.557209 0.830372 0 -0.651246 0.758867 0 -0.557209 0.830372 0 -0.736194 0.676771 0 -0.651246 0.758867 0 -0.736194 0.676771 0 -0.810868 0.585229 0 -0.874225 0.485521 0 -0.810868 0.585229 0 -0.925382 0.379036 0 -0.874225 0.485521 0 -0.925382 0.379036 0 -0.963624 0.267262 0 -0.988418 0.151758 0 -0.963624 0.267262 0 -0.999417 0.0341355 0 -0.988418 0.151758 0 -0.999417 0.0341355 0 -0.996469 -0.083963 0 -0.979614 -0.20089 0 -0.996469 -0.0839631 0 -0.949087 -0.315013 0 -0.979614 -0.20089 0 -0.949087 -0.315013 0 -0.905315 -0.42474 0 -0.848909 -0.528539 0 -0.905315 -0.42474 0 -0.780655 -0.624962 0 -0.848909 -0.528539 0 -0.780655 -0.624962 0 -0.701507 -0.712663 0 -0.612568 -0.790418 0 -0.701507 -0.712663 0 -0.51508 -0.857142 0 -0.612568 -0.790418 0 -0.51508 -0.857142 0 -0.410404 -0.911904 0 -0.3 -0.953939 0 -0.410404 -0.911904 0 -0.3 -0.953939 0 0.117929 0.993022 0 0.234213 0.972185 0 0.117929 0.993022 0 0.234212 0.972185 0 0.347227 0.937781 0 0.455396 0.890289 0 0.347227 0.937781 0 0.557209 0.830372 0 0.455396 0.890289 0 0.557209 0.830372 0 0.651246 0.758867 0 0.736194 0.676771 0 0.651246 0.758867 0 0.810868 0.58523 0 0.736194 0.676771 0 0.810868 0.58523 0 0.874225 0.485521 0 0.925382 0.379036 0 0.874225 0.485521 0 0.963624 0.267262 0 0.925382 0.379036 0 0.963624 0.267262 0 0.988418 0.151757 0 0.999417 0.0341358 0 0.988418 0.151757 0 0.996469 -0.0839631 0 0.999417 0.0341354 0 0.996469 -0.0839627 0 0.979614 -0.20089 0 0.949087 -0.315013 0 0.979614 -0.20089 0 0.905315 -0.42474 0 0.949087 -0.315013 0 0.905315 -0.42474 0 0.848909 -0.528539 0 0.780655 -0.624962 0 0.848909 -0.528539 0 0.701506 -0.712663 0 0.780655 -0.624962 0 0.701507 -0.712663 0 0.612568 -0.790418 0 0.51508 -0.857142 0 0.612568 -0.790418 0 0.410404 -0.911904 0 0.51508 -0.857142 0 0.410404 -0.911904 0 0.3 -0.953939 0 0.3 -0.953939 0 -0 -0 -1 -0 -0 -1 -0 -0 -1 -0 -0 -1 -0 -0 -1 -0 -0 -1 -0 -0 -1 -0 -0 -1 -0 -0 -1 -0 -0 -1 -0 -0 -1 -0 -0 -1 -0 -0 -1 -0 -0 -1 -0 -0 -1 -0 -0 -1 -0 -0 -1 -0 -0 -1 -0 -0 -1 -0 -0 -1 -0 -0 -1 -0 -0 -1 -0 -0 -1 -0 -0 -1 -0 -0 -1 -0 -0 -1 -0 -0 -1 -0 -0 -1 -0 -0 -1 -0 -0 -1 -0 -0 -1 -0 -0 -1 -0 -0 -1 -0 -0 -1 -0 -0 -1 -0 -0 -1 -0 -0 -1 -0 -0 -1 -0 -0 -1 -0 -0 -1 -0 -0 -1 -0 -0 -1 -0 -0 -1 -0 -0 -1 -0 -0 -1 -0 -0 -1 -0 -0 -1 -0 -0 -1 -0 -0 -1 -0 -0 -1 -0 -0 -1 -0 -0 -1 -0 -0 -1 -0 -0 -1 -0 -0 -1 -0 -0 -1 -0 -0 -1 -0 -0 -1 -0 -0 -1 -0 -0 -1 -0 -0 -1 -0 -0 -1 -0 -0 -1 -0 -0 -1 -0 -0 -1 -0 -0 -1 -0 -0 -1 -0 -0 -1 -0 -0 -1 -0 -0 -1 -0 -0 -1 -0 -0 -1 -0 -0 -1 -0 -0 -1 -0 -0 -1 -0 -0 -1 -0 -0 -1 -0 -0 -1 -0 -0 -1 -0 -0 -1 -0 -0 -1 -0 -0 -1 -0 -0 -1 -0 -0 -1 -0 -0 -1 -0 -0 -1 -0 -0 -1 -0 -0 -1 -0 -0 -1 -0 -0 -1 -0 -0 -1 -0 -0 -1 -0 -0 -1 -0 -0 -1 -0 -0 -1 -0 -0 -1 -0 -0 -1 -0 -0 -1 0.895896 0.0494647 0.441501 0.79797 0.134294 0.587544 0.810511 0.0174832 0.585462 0.811862 -0.099569 0.575297 0.802003 -0.215247 0.557189 0.896622 -0.117446 0.426938 0.872178 -0.281059 0.40039 0.989965 0.076739 0.11866 0.956714 0.0631343 0.284099 0.990331 -0.0902756 0.10533 0.781072 -0.327952 0.531389 0.749357 -0.43613 0.498251 0.82325 -0.436783 0.362602 0.707296 -0.538287 0.458235 0.751212 -0.580245 0.314636 0.878322 -0.424405 0.220069 0.801159 -0.569019 0.185368 0.65547 -0.633012 0.411892 0.701506 -0.69766 0.145464 0.658086 -0.707419 0.257837 0.58216 -0.806717 0.101476 0.594594 -0.718997 0.359863 0.525509 -0.795055 0.302865 0.546487 -0.814735 0.193801 0.446472 -0.893128 0.0546389 0.3 -0.953939 6.60089e-10 0.410294 -0.911953 0.00123155 0.419547 -0.89918 0.124324 0.515169 -0.857088 -0.00139018 0.612573 -0.790414 -9.72667e-05 0.279024 -0.953939 0.110207 0.29472 -0.953936 0.0560891 0.366628 -0.913343 0.177169 0.449169 -0.860137 0.241685 -0.032709 -0.75525 0.65462 -0.0434362 -0.635267 0.77107 -0.180756 -0.637007 0.749366 0.870022 0.214987 0.44367 0.774413 0.249251 0.581514 0.961809 0.241599 0.128659 0.906653 0.399678 0.135046 0.875926 0.387106 0.287929 0.740163 0.360766 0.567456 0.819724 0.374473 0.433385 0.746415 0.523448 0.410934 0.695695 0.467301 0.545563 0.641621 0.567384 0.516138 0.652153 0.657729 0.376947 0.578689 0.659633 0.479587 0.577468 0.782061 0.234332 0.722251 0.678053 0.136374 0.598181 0.790535 0.131278 0.539584 0.773546 0.332379 0.507767 0.742775 0.436414 0.429835 0.815662 0.387216 0.411868 0.867648 0.27848 0.345969 0.877288 0.332672 0.27259 0.937394 0.216764 0.125661 0.980826 0.148963 0.16513 0.96352 0.210622 0.257326 0.926802 0.273535 0.0706542 0.986935 0.144801 0.141395 0.985388 0.0949614 -0.0247969 0.996724 0.0769801 0.135834 0.983112 0.122634 -0.00780063 0.999237 -0.0382813 -0.113129 0.993502 -0.0124819 0.115782 0.993242 -0.00803947 -0.989315 0.0255767 0.143532 -0.999417 0.0341337 4.89148e-05 -0.996469 -0.0839637 1.63641e-05 -0.65128 0.758838 0.000748152 -0.736203 0.676761 0.000243849 -0.640734 0.766625 0.0417878 0.431173 -0.829968 0.353895 -0.541973 -0.1836 0.820095 -0.376885 -0.347523 0.858595 -0.393608 -0.186099 0.900244 -0.434782 -0.634784 0.63876 -0.484449 -0.496918 0.719987 -0.605072 -0.492619 0.625471 -0.905315 -0.424741 3.82861e-05 -0.883882 -0.458414 0.0927803 -0.945912 -0.304097 0.113031 -0.951262 0.0138152 0.308075 -0.94348 -0.152959 0.294022 -0.878354 -0.163327 0.449243 -0.780651 -0.624967 0.000131304 -0.687825 -0.724474 0.0451084 -0.797041 -0.599864 0.0699258 -0.849423 -0.469065 0.241781 -0.765789 -0.609523 0.205059 0.0808476 -0.953937 0.288908 0.0660927 -0.926904 0.369434 0.0265152 -0.953938 0.29883 -0.3 -0.953939 -4.46264e-08 -0.398228 -0.914962 0.0652536 -0.410333 -0.911936 0.000886476 -0.294913 -0.95394 0.0549976 -0.515051 -0.85716 0.000476937 -0.848908 -0.528541 4.4869e-05 -0.612564 -0.790421 7.02605e-05 -0.701501 -0.712668 0.000141053 -0.979614 -0.200891 3.6536e-05 -0.949087 -0.315015 5.80443e-05 -0.981388 -0.141242 0.130107 0.101303 -0.179828 0.978468 0.102235 -0.341451 0.934323 0.262687 -0.335179 0.904793 -0.152083 -0.756763 0.635752 -0.312468 -0.636844 0.704835 0.088106 -0.752127 0.653102 0.206888 -0.747484 0.631241 0.0955423 -0.631674 0.769324 0.682584 -0.306105 0.663611 0.557096 -0.317248 0.767462 0.645227 -0.460301 0.609759 -0.349583 -0.49919 0.792844 0.179543 -0.953936 0.240353 0.274904 -0.915793 0.292834 0.210029 -0.920285 0.330097 0.424835 -0.73421 0.529577 0.517732 -0.725961 0.452697 0.332511 -0.910677 0.245159 0.35485 -0.836746 0.417059 -0.544179 -0.630885 0.55304 -0.707984 -0.486417 0.512013 0.2541 -0.953937 0.159489 -0.758581 -0.333919 0.559511 -0.846165 -0.325477 0.421983 -0.795068 -0.00534695 0.606497 -0.885886 0.00340751 0.463891 -0.787883 -0.172048 0.591303 -0.909213 -0.315439 0.271715 -0.96947 0.191678 0.152927 -0.988418 0.151756 5.6799e-05 -0.925383 0.379033 8.46417e-05 -0.963624 0.267262 1.13874e-05 -0.922411 0.352398 0.15803 -0.826831 0.331912 0.454076 -0.817245 0.49327 0.297986 -0.887245 0.34153 0.310086 -0.874229 0.485515 0.000159225 -0.849458 0.503226 0.158697 -0.724303 0.631164 0.277522 -0.634732 0.758666 0.146771 -0.752659 0.639928 0.154908 -0.503642 0.86228 0.0530838 -0.810868 0.585229 1.35804e-07 -0.349234 0.929515 0.118481 -0.498986 0.856107 0.134514 -0.480601 0.850424 0.214014 -0.557248 0.830346 0.000685348 -0.346612 0.937994 -0.00528554 -0.455503 0.890233 0.00143516 -0.352412 0.933729 0.0628899 -0.23255 0.972537 -0.00959437 -0.180206 0.983502 0.0157841 0.828467 -0.557846 0.0494992 0.93083 -0.267876 0.248593 0.962897 -0.254756 0.0890437 0.957207 -0.103828 0.270137 0.929364 0.228325 0.290086 0.797899 0.53502 0.27769 0.697473 0.667915 0.259655 0.441253 0.874253 0.20243 0.292651 0.941903 0.164846 0.303618 0.94639 0.110277 0.457318 0.880826 0.122497 0.701526 -0.712643 -0.000499877 0.84891 -0.528537 -4.75702e-05 0.908433 -0.412085 0.0702576 0.979614 -0.200889 -2.95872e-05 0.963624 0.267263 -1.54324e-05 0.826046 0.546536 0.137642 0.810868 0.585229 -2.07267e-08 0.459603 0.887179 0.0409795 0.305178 0.950727 0.0546265 0.780663 -0.624952 -0.000250614 0.905317 -0.424736 -0.000102903 0.949088 -0.31501 -8.6664e-05 0.996469 -0.0839618 -3.26128e-05 0.999417 0.0341375 -5.13255e-05 0.988418 0.151759 -3.1647e-05 0.925381 0.379039 -6.37528e-05 0.874224 0.485523 -6.72987e-05 0.736189 0.676776 -0.00014404 0.651236 0.758875 -0.000233563 0.601126 0.798725 0.0261821 0.455359 0.890308 -0.000516894 0.142186 0.987587 0.0667401 0.557204 0.830376 -9.62689e-05 0.34708 0.937834 -0.00151595 0.138183 0.989647 0.0387822 0.233356 0.972373 -0.00591403 -0.188102 0.981213 0.0428824 -0.19129 0.978967 0.0709306 -0.189678 0.97683 0.0991218 -0.369285 -0.91957 0.134237 -0.53698 -0.835646 0.115539 -0.660657 -0.732871 0.162581 -0.37291 -0.75483 0.539601 -0.93234 0.180202 0.31348 -0.675586 0.623408 0.393632 -0.611028 0.751339 0.249267 -0.285163 0.919315 0.271187 -0.315118 0.922203 0.224149 -0.405134 0.841166 0.358199 -0.761903 0.48446 0.429888 -0.336682 0.925635 0.172754 -0.183313 0.974863 0.126645 -0.279831 -0.953941 0.10813 -0.329078 -0.923446 0.197371 -0.498633 -0.84175 0.206934 -0.613983 -0.740301 0.273822 -0.712098 -0.61807 0.333024 -0.790223 -0.478489 0.382877 -0.64898 -0.340525 0.680343 -0.868549 0.170046 0.465517 -0.637884 0.317492 0.701643 -0.588819 0.471251 0.65667 -0.685023 0.477049 0.550606 -0.442942 0.735137 0.513202 -0.513734 0.739403 0.435156 -0.523224 0.61178 0.593263 -0.570305 0.744856 0.346326 -0.449014 0.845395 0.289298 -0.607911 0.616885 0.499898 -0.255265 -0.953941 0.157597 -0.278764 -0.926478 0.252841 -0.445363 -0.846885 0.290581 -0.549146 -0.746551 0.375633 -0.637513 -0.62526 0.450141 -0.548215 -0.0169437 0.836166 -0.539067 0.150189 0.828764 -0.669043 0.154821 0.726919 -0.779934 0.161504 0.604664 -0.742906 0.323822 0.585858 -0.359966 0.732179 0.578219 -0.267194 0.730617 0.628336 -0.285865 0.835563 0.469165 -0.172377 0.973122 0.152708 -0.222048 -0.953941 0.201723 -0.219791 -0.92858 0.29905 -0.378702 -0.850903 0.364072 -0.46801 -0.751441 0.465084 -0.204356 -0.499369 0.841944 -0.67467 -0.178871 0.716118 -0.681422 -0.0121964 0.73179 -0.476057 0.467232 0.745026 -0.514787 0.313105 0.798097 -0.213907 0.83435 0.508039 -0.350225 0.837856 0.418735 -0.247677 0.917056 0.312514 -0.157186 0.971658 0.176562 -0.181304 -0.95394 0.239011 -0.134417 -0.95394 0.268199 -0.153855 -0.929691 0.33467 -0.300569 -0.853687 0.425295 -0.11914 -0.855275 0.504292 -0.0210636 -0.854032 0.519794 -0.520517 -0.345103 0.781003 -0.237258 0.147548 0.960176 -0.228952 0.310604 0.922554 -0.377157 0.310787 0.872447 -0.214218 0.464941 0.859035 -0.193471 0.606226 0.771401 -0.31298 0.606374 0.730996 -0.423962 0.608243 0.671041 -0.20374 0.91549 0.346941 -0.167293 0.730494 0.662112 -0.138177 0.970512 0.197519 -0.0829724 -0.953939 0.288297 -0.0828526 -0.929778 0.358675 -0.213211 -0.855159 0.472488 -0.266581 -0.756621 0.597042 -0.238904 -0.0196502 0.970844 -0.0672758 -0.184186 0.980586 -0.0716975 -0.0175315 0.997272 -0.399281 -0.0194524 0.916622 -0.393745 0.147741 0.907269 -0.349981 0.465108 0.813134 -0.101716 0.914597 0.391364 -0.0556323 0.835279 0.547005 -0.0465639 0.915296 0.400081 -0.154615 0.914662 0.373479 -0.0641569 0.969265 0.237506 -0.090983 0.969298 0.228436 -0.115895 0.969718 0.214978 -0.0287154 -0.953939 0.298625 -0.00882699 -0.92884 0.370376 -0.222219 -0.347713 0.910887 -0.233844 -0.186297 0.954259 0.0819472 0.316604 0.945011 -0.0726743 0.466734 0.881406 -0.0744351 0.312562 0.946976 0.0261303 0.837392 0.545978 0.0422728 0.734538 0.677249 0.14591 0.73859 0.658176 -0.136419 0.834255 0.534236 -0.0631391 0.731813 0.678574 -0.052944 -0.497451 0.865875 -0.0609656 -0.34567 0.936374 0.408247 0.168472 0.897191 0.235696 0.322615 0.916715 0.253356 0.16023 0.954011 -0.0741064 0.149615 0.985963 -0.0688734 0.607805 0.791094 0.164826 0.925017 0.34231 0.116491 0.92167 0.370073 0.254014 0.849518 0.462381 -0.0361883 0.96962 0.241926 0.139751 -0.924024 0.355878 0.0781968 -0.851466 0.518546 0.100296 -0.493489 0.86395 0.0975281 -0.0131572 0.995146 0.0910151 0.153883 0.983888 0.336071 0.750171 0.569473 0.505657 0.638376 0.580334 0.417124 0.757368 0.502395 0.0705788 0.470437 0.879606 0.0572289 0.611065 0.789509 0.00925402 0.916739 0.39938 0.106516 0.840535 0.531184 0.064132 0.918884 0.38928 0.13244 -0.953937 0.269192 0.175787 -0.847651 0.500586 0.232181 -0.626333 0.744177 0.250956 -0.4876 0.836222 0.699303 0.0234939 0.714439 0.569183 0.0119399 0.822124 0.700779 -0.143317 0.698834 0.267044 -0.173349 0.947965 0.263904 -0.00665313 0.964526 0.21142 0.475943 0.853686 0.181209 0.615911 0.766692 0.207745 0.928828 0.306791 0.316883 0.8551 0.410352 -0.00788207 0.970351 0.241571 0.183213 0.844616 0.503048 0.320217 -0.741453 0.589668 0.268897 -0.842697 0.466429 0.362548 -0.619396 0.696353 0.394702 -0.479951 0.783491 0.415776 -0.327033 0.848634 0.425178 -0.164935 0.889955 0.422645 0.00179354 0.906294 0.678196 0.189646 0.709989 0.638051 0.350474 0.685609 0.517806 0.339797 0.785121 0.382389 0.33042 0.862903 0.345797 0.483093 0.804391 0.299498 0.622205 0.723299 0.244791 0.743851 0.621903 0.0199475 0.971439 0.236449 0.0465 0.972852 0.226709 0.0710114 0.974549 0.21263 0.22056 -0.953937 0.203367 0.482894 -0.611063 0.627228 0.527398 -0.470763 0.707272 0.571156 -0.154827 0.806107 0.551232 0.178372 0.815063 0.469845 0.491683 0.73314 0.408694 0.629766 0.660578 0.589757 -0.601574 0.53879 0.579994 0.501463 0.641982 0.0927765 0.976482 0.194617 0 0 -1 0 0 -1 0 0 -1 0 0 -1 0 0 -1 0 0 -1 0 0 -1 0 0 -1 0 0 -1 0.0825792 -0.996584 0 -0.0424412 -0.999099 -0 -0.0825794 -0.996584 -0 0.996397 0.0848059 0 0.996397 -0.0848059 0 1 8.74228e-08 0 -0.210679 -0.977555 -0 -0.245485 -0.9694 -0 -0.401695 -0.915773 -0 -0.372856 -0.927889 -0 -0.524307 -0.851529 -0 -0.546948 -0.837166 -0 -0.660675 -0.750672 -0 -0.677282 -0.735724 -0 -0.789141 -0.614213 -0 -0.778036 -0.62822 -0 -0.873014 -0.487695 -0 -0.879474 -0.475947 -0 -0.942877 -0.33314 -0 -0.945817 -0.324699 -0 -0.986361 -0.164595 -0 -0.985616 -0.169001 -0 -1 8.88178e-16 0 -1 1.37157e-11 0 0.127018 -0.9919 0 0.245485 -0.9694 0 0.292823 -0.956167 0 0.401695 -0.915773 0 0.450204 -0.892926 0 0.594633 -0.803997 0 0.546948 -0.837166 0 0.677282 -0.735724 0 0.721956 -0.691939 0 0.78914 -0.614213 0 0.82851 -0.559975 0 0.911229 -0.411901 0 0.879474 -0.475947 0 0.945817 -0.324699 0 0.967733 -0.251978 0 0.986361 -0.164595 0 0.82851 0.559975 0 0.911228 0.411901 0 0.879474 0.475947 0 0.967733 0.251978 0 0.986361 0.164595 0 0.945817 0.324699 0 0.546948 0.837167 0 0.450204 0.892926 0 0.594633 0.803997 0 0.78914 0.614213 0 0.677282 0.735724 0 0.721956 0.691939 0 0.127018 0.9919 0 0.0825794 0.996584 0 -0.0424415 0.999099 0 0.292823 0.956167 0 0.401695 0.915773 0 0.245486 0.9694 0 -0.524307 0.851529 0 -0.372856 0.927889 0 -0.401695 0.915773 0 -0.245485 0.9694 0 -0.210679 0.977555 0 -0.0825794 0.996584 0 -0.789141 0.614213 0 -0.778036 0.62822 0 -0.677282 0.735724 0 -0.546948 0.837166 0 -0.660675 0.750672 0 -0.873014 0.487695 0 -0.879474 0.475947 0 -0.945817 0.324699 0 -0.942877 0.33314 0 -0.986361 0.164595 0 -0.985616 0.169001 0 0 0 -1 0 0 -1 0 0 -1 0 0 -1 0 0 -1 0 0 -1 0 0 -1 0 0 -1 0 0 -1 0 0 -1 0 0 -1 0 0 -1 0 0 -1 0 0 -1 0 0 -1 0 0 -1 0 0 -1 0 0 -1 0 0 -1 0 0 -1 0 0 -1 0 0 -1 0 0 -1 0 0 -1 0 0 -1 0 0 -1 0 0 -1 0 0 -1 0 0 -1 0 0 -1 0 0 -1 0 0 -1 0 0 -1 0 0 -1 0 0 -1 0 0 -1 0 0 -1 0 0 -1 0 -1 0 0 -1 0 0 -1 0 0 -1 0 0 -1 0 0 -1 0 0 -1 0 0 -1 0 0 -1 0 0 -1 0 0 -1 0 0 -1 0 0 -1 0 0 -1 0 0 -1 0 0 -1 0 0 -1 0 0 -1 0 0 -1 0 0 -1 0</float_array>
          <technique_common>
            <accessor count="1245" source="#ID7" stride="3">
              <param name="X" type="float"/>
              <param name="Y" type="float"/>
              <param name="Z" type="float"/>
            </accessor>
          </technique_common>
        </source>
        <vertices id="ID8">
          <input semantic="POSITION" source="#ID4"/>
          <input semantic="NORMAL" source="#ID6"/>
        </vertices>
        <triangles count="1788" material="ID9">
          <input offset="0" semantic="VERTEX" source="#ID8"/>
          <p>0 1 2 3 4 5 6 7 4 6 8 7 9 8 6 0 2 10 11 12 13 14 15 16 17 18 19 20 14 21 11 22 23 24 25 26 27 26 25 28 22 13 16 23 29 15 30 11 15 31 30 32 33 34 28 35 36 37 38 39 40 41 4 41 40 42 43 44 45 46 47 48 49 50 51 52 53 54 55 56 57 58 59 60 61 58 62 63 64 61 59 65 66 58 61 67 68 59 67 59 66 69 70 71 72 73 74 65 75 76 77 75 78 79 80 81 82 74 73 76 83 84 85 86 81 87 67 59 58 76 73 77 88 89 90 64 91 56 92 93 94 91 57 56 57 91 95 57 95 52 57 52 54 96 97 98 99 100 101 102 103 104 53 105 106 107 108 103 109 101 51 92 110 111 112 113 114 115 110 116 117 5 4 41 117 4 118 119 120 113 121 114 122 123 120 124 125 126 109 51 50 127 104 128 129 130 112 67 61 131 47 132 133 56 55 64 63 61 62 58 60 62 134 98 131 96 134 46 48 135 46 101 100 51 136 135 101 50 137 138 139 112 130 129 138 130 140 141 142 140 114 121 143 102 144 145 146 141 147 119 148 120 119 141 148 119 118 118 126 149 148 149 150 151 116 152 153 123 152 154 115 155 111 154 107 156 128 155 157 144 127 158 159 127 144 104 127 158 160 106 161 106 105 161 158 106 53 52 105 143 144 162 117 41 162 41 143 162 5 117 163 41 42 143 153 93 125 117 162 163 157 162 144 164 163 162 143 42 102 165 166 152 162 157 164 104 144 102 159 164 157 102 42 103 127 128 160 159 157 127 108 104 103 158 127 160 161 167 158 159 158 167 42 107 103 124 120 123 155 115 168 108 128 104 154 108 107 169 170 171 155 128 108 106 160 172 156 172 160 171 54 172 106 172 54 54 53 106 42 111 107 150 173 174 156 155 168 154 155 108 110 154 111 175 176 177 172 156 175 128 156 160 168 175 156 175 169 171 175 171 172 178 171 179 54 171 178 179 180 181 54 178 57 64 55 61 42 92 111 173 182 183 168 115 184 110 115 154 94 116 110 185 168 184 115 116 184 176 168 185 176 175 168 169 175 177 170 186 171 171 186 179 181 180 187 57 178 55 178 179 181 89 88 181 55 178 88 88 47 134 55 131 61 98 68 67 60 59 69 42 93 92 147 188 189 151 190 116 92 94 110 153 152 94 184 190 191 190 184 116 185 184 191 89 181 187 178 181 88 47 90 132 55 88 131 90 47 88 192 48 193 134 131 88 59 68 70 98 67 131 65 70 80 86 82 81 66 65 74 70 65 59 78 77 82 73 80 82 78 75 77 42 125 93 38 194 182 94 152 116 93 153 94 124 123 153 151 152 166 195 48 133 48 195 193 48 47 133 71 68 97 46 134 47 196 97 197 96 98 134 80 70 72 97 68 98 81 198 85 73 82 77 65 80 73 72 81 80 78 82 86 42 126 125 188 183 199 123 165 152 125 124 153 118 120 124 122 165 123 101 192 99 96 46 200 101 48 192 197 201 196 135 200 46 197 97 96 96 200 197 196 71 97 72 71 202 68 71 70 71 196 202 81 72 198 202 198 72 85 87 81 42 149 126 39 203 204 205 122 120 126 118 124 148 118 149 146 205 120 206 136 207 135 48 101 101 109 136 200 135 206 135 136 206 201 197 200 206 201 200 201 208 196 209 210 202 209 202 196 210 83 198 210 198 202 85 198 83 42 150 149 211 37 212 141 213 145 141 146 120 150 174 148 142 114 140 142 141 119 213 141 140 139 113 112 129 50 138 45 109 50 49 137 50 50 129 45 214 136 109 109 45 214 215 216 201 215 201 206 201 216 208 196 208 209 42 173 150 217 218 203 147 142 119 174 147 148 173 183 174 199 219 188 174 188 147 220 114 142 142 189 220 221 112 114 114 220 221 222 129 112 112 221 222 222 43 129 44 223 214 44 214 45 214 223 207 206 207 215 214 207 136 42 182 173 224 225 217 189 188 219 183 188 174 194 183 182 220 189 226 221 220 226 147 189 142 219 226 189 227 228 221 228 229 222 228 222 221 43 45 129 229 43 222 42 38 182 225 230 231 219 199 232 194 199 183 194 37 211 233 219 232 199 211 232 233 234 226 233 226 219 226 227 221 234 227 226 42 39 38 224 32 34 194 211 199 38 37 194 212 37 204 232 235 236 235 232 211 233 232 236 42 203 39 34 230 225 212 218 231 39 204 37 231 218 225 235 211 212 42 217 203 237 33 32 218 212 204 203 218 204 212 231 235 42 224 217 36 238 33 217 225 218 224 42 32 35 238 36 230 34 239 224 34 225 32 42 237 240 21 29 34 33 239 237 42 36 17 241 240 239 33 238 36 33 237 36 42 28 241 24 20 12 238 35 28 42 22 18 242 243 12 35 13 28 13 35 22 42 23 19 25 24 22 11 13 11 16 15 30 12 11 23 42 29 244 242 1 23 16 11 16 21 14 31 15 245 29 42 240 243 244 25 14 245 15 29 21 16 21 241 20 246 245 14 240 42 17 244 247 248 20 246 14 240 241 21 241 19 24 249 246 20 17 42 18 244 1 0 24 249 20 17 19 241 243 25 19 26 249 24 18 42 242 2 250 10 251 252 25 18 243 19 25 252 27 242 42 1 244 251 25 242 244 243 248 251 244 1 42 2 10 250 253 254 247 0 244 0 247 2 42 250 8 255 253 256 254 10 0 10 254 250 42 253 42 40 7 255 256 253 253 256 10 42 8 253 4 3 6 9 255 8 42 7 8 40 4 7 3 9 6 257 258 259 260 261 262 263 264 265 266 267 268 269 267 270 271 272 273 274 275 276 277 278 279 280 281 282 283 284 282 285 281 286 281 280 286 287 285 288 285 287 281 289 290 277 291 292 272 282 284 293 282 293 280 283 282 294 290 289 294 295 294 289 283 294 295 277 290 278 296 279 278 260 263 265 296 271 273 296 278 271 273 272 292 276 275 291 291 272 276 274 276 266 268 267 297 274 266 268 269 270 262 297 267 269 270 260 262 260 298 299 261 260 299 298 260 265 300 263 301 263 300 264 302 263 303 302 301 263 258 304 303 303 263 258 304 258 305 257 259 306 258 257 305 307 308 309 310 311 312 313 314 315 316 317 318 319 317 320 321 322 323 324 325 326 327 328 329 330 331 332 333 334 335 336 334 337 334 333 337 338 336 339 336 338 334 340 341 330 342 343 322 335 344 345 335 345 333 340 327 341 335 327 329 344 335 329 328 327 340 330 341 331 346 332 331 347 314 313 346 321 323 346 331 321 323 322 343 326 325 342 342 322 326 324 326 316 318 317 348 324 316 318 319 320 312 348 317 319 311 310 349 320 310 312 313 315 349 310 313 349 308 350 347 347 313 308 307 309 351 308 307 350 352 353 354 355 356 357 357 358 355 355 352 354 358 352 355 359 354 353 360 355 354 361 362 363 364 365 366 361 367 368 369 367 370 371 372 370 363 373 374 367 375 368 376 377 378 379 378 380 381 382 373 383 384 385 380 377 386 387 388 389 389 388 390 391 392 393 384 390 385 394 395 396 384 383 397 398 399 400 401 398 402 403 404 405 406 407 408 404 409 410 403 411 409 412 413 414 415 416 403 417 418 419 420 421 405 422 366 423 400 424 425 386 407 406 426 427 428 429 430 431 427 432 428 433 434 365 426 431 430 435 433 365 429 408 436 365 437 435 407 436 408 386 377 407 438 439 440 402 398 410 398 401 383 441 442 443 436 430 429 430 427 426 427 434 432 432 434 433 365 364 437 444 366 445 434 446 365 420 447 421 422 445 366 445 448 444 423 417 422 449 419 450 416 451 452 413 453 454 399 424 400 383 401 397 455 456 457 390 388 385 388 392 458 387 393 388 395 394 393 395 393 459 395 460 461 396 461 382 462 374 461 378 379 463 407 376 464 380 378 377 436 464 465 376 407 377 465 466 430 464 436 407 427 466 467 436 465 430 467 446 434 430 466 427 468 423 446 427 467 434 365 446 366 444 364 366 437 364 444 369 469 378 379 375 463 367 463 375 370 470 369 463 369 378 471 464 376 376 469 471 442 465 464 471 442 464 441 466 465 465 442 441 443 472 441 466 441 473 474 475 476 466 473 467 477 417 478 467 468 446 423 366 446 479 445 422 448 445 479 480 361 368 362 361 480 469 369 470 367 369 463 371 370 367 471 469 481 481 482 483 378 469 376 469 470 481 442 471 483 471 481 483 484 443 483 442 483 443 485 472 486 474 476 472 467 473 468 472 473 441 476 468 473 418 423 468 479 422 487 422 477 487 477 422 417 488 487 477 367 361 371 372 489 374 372 470 370 489 372 371 372 490 470 481 491 492 491 481 470 482 481 492 482 493 483 484 483 493 484 486 443 443 486 472 474 472 485 473 472 476 476 475 450 468 476 418 450 494 495 423 418 417 476 450 418 417 419 478 496 488 477 363 489 361 373 362 381 497 498 372 361 489 371 372 498 490 470 490 491 450 475 494 449 495 451 418 450 419 449 412 419 496 478 412 477 478 496 362 373 363 382 381 438 374 497 372 363 374 489 462 497 374 449 450 495 416 413 449 496 412 414 419 412 478 373 461 374 382 461 373 439 499 500 396 395 461 460 462 461 452 411 403 451 416 449 403 416 452 449 413 412 416 415 453 414 413 454 382 440 396 438 440 382 501 502 503 504 460 395 440 505 396 394 506 391 387 459 393 395 459 504 398 404 410 403 405 507 404 403 409 508 453 415 416 453 413 415 507 508 454 453 509 440 500 505 439 500 440 510 511 501 505 394 396 512 505 500 506 513 391 506 394 505 514 392 391 391 393 394 515 458 392 393 392 388 516 385 458 388 458 385 399 383 516 383 385 516 404 400 420 383 399 398 507 405 421 404 398 400 421 508 507 508 509 453 403 507 415 517 509 508 512 500 499 499 510 512 502 501 511 505 512 506 512 501 503 503 518 513 512 503 506 513 519 514 513 514 391 520 521 522 514 515 392 523 516 458 515 523 458 524 399 516 524 516 523 525 526 425 524 424 399 425 420 400 527 421 447 404 420 405 420 425 447 421 517 508 527 517 421 528 529 502 510 501 512 503 502 529 506 503 513 503 529 518 518 530 519 518 519 513 515 514 522 519 522 514 523 515 521 515 522 521 524 523 457 521 457 523 424 524 456 524 457 456 525 425 424 456 525 424 447 526 531 526 447 425 527 447 531 528 532 529 529 532 518 532 530 518 530 533 519 533 534 519 534 535 522 534 522 519 520 522 535 520 536 521 536 537 457 536 457 521 455 457 537 455 538 456 538 539 525 538 525 456 526 525 539 540 541 542 543 541 544 541 543 542 545 546 544 543 544 546 545 547 548 548 546 545 549 547 550 547 549 548 551 552 550 549 550 552 551 553 554 554 552 551 555 553 556 553 555 554 557 558 556 555 556 558 557 559 560 560 558 557 561 559 562 559 561 560 563 564 562 561 562 564 563 565 566 566 564 563 567 565 568 565 567 566 569 570 568 567 568 570 569 571 572 572 570 569 573 571 574 571 573 572 575 576 574 573 574 576 575 577 578 578 576 575 579 577 580 577 579 578 581 582 580 579 580 582 581 583 584 584 582 581 585 583 586 583 585 584 587 588 586 585 586 588 589 588 587 590 540 542 590 591 592 592 540 590 593 591 594 591 593 592 595 596 594 593 594 596 595 597 598 598 596 595 599 597 600 597 599 598 601 602 600 599 600 602 601 603 604 604 602 601 605 603 606 603 605 604 607 608 606 605 606 608 607 609 610 610 608 607 611 609 612 609 611 610 613 614 612 611 612 614 613 615 616 616 614 613 617 615 618 615 617 616 619 620 618 617 618 620 619 621 622 622 620 619 623 621 624 621 623 622 625 626 624 623 624 626 625 627 628 628 626 625 629 627 630 627 629 628 631 632 630 629 630 632 631 633 634 634 632 631 635 633 636 633 635 634 635 636 637 638 639 640 641 642 643 644 645 646 647 648 649 650 651 652 653 654 655 656 657 658 659 660 661 662 663 664 665 666 667 668 669 670 671 672 673 674 675 676 677 678 679 642 677 680 678 676 679 675 681 682 643 683 684 685 682 686 687 683 669 688 689 670 685 690 673 691 672 692 693 688 663 694 695 664 696 697 698 699 700 701 658 702 694 703 704 705 706 707 708 709 651 704 660 653 655 659 653 660 710 711 645 711 712 652 713 714 647 654 713 655 715 640 716 717 646 715 718 719 720 720 649 721 722 719 723 638 724 725 726 727 728 724 729 728 730 722 731 732 728 727 656 705 657 659 661 707 696 691 697 713 654 714 647 714 648 649 648 721 720 721 718 719 718 723 722 723 731 732 730 733 730 731 733 734 735 732 732 735 730 732 727 734 726 728 729 724 728 725 638 725 639 640 639 716 715 716 717 646 717 644 645 644 710 711 710 712 652 712 650 652 651 709 709 704 703 703 705 656 658 657 702 694 702 695 664 695 662 663 662 693 688 693 689 670 689 668 669 668 687 683 687 684 643 684 641 643 642 680 680 677 679 676 678 674 675 674 681 682 681 686 685 686 690 673 690 671 672 671 692 691 692 697 667 696 698 667 666 701 667 698 665 699 706 700 666 699 701 707 661 708 706 708 700 736 737 738 739 740 741 741 736 739 741 740 742 743 744 745 740 746 742 747 748 746 748 742 746 739 736 738 749 750 748 751 748 752 749 748 747 750 749 753 754 755 756 757 755 753 758 759 755 758 755 757 760 761 762 759 763 760 764 765 756 760 764 756 766 767 768 763 759 769 768 767 763 770 771 772 750 753 755 773 737 736 737 773 774 775 776 777 778 774 779 773 779 774 779 780 781 781 778 779 781 780 782 782 780 783 784 782 783 785 786 787 783 788 789 789 784 783 789 788 790 790 788 791 792 790 791 793 792 791 794 795 793 796 792 793 797 795 794 793 795 796 798 799 800 799 797 794 799 801 802 803 801 799 804 805 806 807 808 809 769 758 810 811 812 813 814 815 816 817 818 819 820 821 822 823 824 825 826 818 827 828 829 830 831 832 833 834 832 831 835 833 832 825 818 836 837 824 838 817 836 818 823 825 836 819 839 840 817 819 840 839 819 841 842 843 844 845 772 846 847 848 849 850 851 852 853 815 846 854 855 856 857 810 858 859 860 855 768 769 859 861 816 862 768 863 766 864 865 862 866 867 868 821 869 865 804 820 870 806 839 841 805 804 871 841 804 806 872 873 874 875 876 877 871 870 873 872 874 878 879 878 874 880 881 882 809 881 883 882 808 884 885 886 887 882 876 880 809 888 807 888 809 883 889 890 891 809 882 881 892 893 802 768 763 769 760 767 761 769 759 758 759 756 755 752 750 754 750 755 754 894 751 752 750 752 748 895 742 751 742 748 751 896 897 895 742 895 741 744 736 897 741 895 897 898 773 744 736 744 773 777 779 898 773 898 779 899 780 777 780 779 777 788 783 900 780 899 783 788 785 791 899 900 783 793 791 901 788 900 785 793 902 794 791 785 901 903 902 904 793 901 902 800 794 902 760 763 767 762 764 760 905 754 765 759 760 756 752 754 894 894 906 907 907 751 894 896 895 907 895 751 907 896 908 745 897 896 745 736 741 897 744 897 745 775 898 743 898 744 743 775 909 776 898 775 777 910 899 776 899 777 776 910 911 786 900 899 910 900 910 786 785 900 786 787 904 901 901 785 787 800 902 903 902 901 904 903 912 913 800 903 798 799 794 800 756 765 754 914 754 905 914 894 754 914 906 894 906 915 907 915 916 907 907 916 896 916 908 896 908 917 745 917 918 745 745 918 743 918 919 743 919 909 775 919 775 743 909 920 776 920 921 776 921 911 910 921 910 776 922 786 911 923 924 787 912 904 924 904 787 924 912 925 913 903 904 912 926 798 913 798 926 799 923 786 922 786 923 787 923 927 924 924 927 912 927 925 912 925 928 913 929 928 930 798 903 913 926 913 929 926 929 799 929 913 928 930 803 929 929 803 799 931 892 889 893 931 802 890 888 883 931 893 892 891 890 883 931 932 802 871 804 870 873 870 874 882 884 879 884 878 879 882 809 808 886 891 883 932 891 885 932 931 891 891 931 889 883 881 886 932 933 802 834 934 832 837 835 935 825 936 827 823 838 824 824 935 936 861 937 814 936 825 824 841 819 869 818 825 827 821 804 841 826 819 818 874 870 938 819 826 869 879 874 877 821 841 869 882 879 876 821 820 804 939 940 880 938 870 820 886 881 940 938 877 874 941 942 943 876 879 877 944 939 880 933 885 945 886 885 891 880 940 881 940 887 886 933 946 802 932 885 933 935 835 832 947 934 834 947 948 934 935 824 837 935 934 949 827 950 951 949 950 936 951 952 826 950 827 936 816 953 864 951 826 827 938 820 867 952 869 826 877 938 954 952 865 869 955 956 957 822 821 865 880 876 944 822 867 820 958 959 960 954 938 867 887 940 961 954 875 877 945 887 962 944 876 875 961 939 963 946 945 942 887 945 885 939 961 940 961 962 887 802 946 799 933 945 946 832 934 935 964 948 947 964 965 948 935 949 936 949 948 966 951 967 968 966 967 950 968 862 952 950 967 951 864 868 822 951 968 952 969 970 971 862 865 952 866 972 954 865 864 822 972 973 875 868 867 822 973 957 944 867 866 954 957 963 939 972 875 954 963 959 961 875 973 944 959 943 962 944 957 939 974 975 976 958 943 959 962 942 945 961 959 962 962 943 942 799 946 977 946 942 977 934 948 949 978 965 964 978 979 965 949 966 950 966 965 980 968 981 861 980 981 967 772 982 853 967 981 968 983 868 953 861 862 968 984 866 983 862 816 864 971 972 984 864 953 868 955 973 971 868 983 866 985 956 986 866 984 972 960 963 956 972 971 973 975 987 976 973 955 957 988 943 958 957 956 963 989 941 988 963 960 959 974 988 958 990 977 941 942 941 977 941 943 988 799 977 990 948 965 966 991 979 978 979 992 993 966 980 967 980 979 994 845 995 996 937 981 994 815 997 953 981 937 861 811 983 997 816 861 814 969 984 811 953 816 815 998 999 1000 953 997 983 986 955 970 983 811 984 1001 1002 1003 984 969 971 1004 960 985 971 970 955 1004 974 958 955 986 956 976 988 974 956 985 960 1005 989 976 958 960 1004 1006 987 975 1007 990 989 941 989 990 989 988 976 799 990 1007 965 979 980 991 992 979 993 1008 1009 980 994 981 993 1010 994 1011 846 814 937 1010 1011 853 812 997 937 1011 814 1012 1013 1014 814 846 815 1015 969 813 997 815 853 1015 1016 970 997 812 811 1000 986 1016 969 811 813 1000 1017 985 969 1015 970 1003 1004 1017 970 1016 986 1003 975 974 985 986 1000 1018 1019 1020 985 1017 1004 1021 1005 987 974 1004 1003 1022 1023 1018 1024 1007 1005 989 1005 1007 987 1005 976 799 1007 1024 979 993 994 992 1008 993 1009 1025 1026 994 1010 937 1009 995 1010 771 770 847 1011 995 845 982 1027 812 1011 845 846 1027 1028 813 846 772 853 1028 1012 1015 812 853 982 1012 998 1016 813 812 1027 1029 1030 1031 1015 813 1028 999 1001 1017 1016 1015 1012 1032 1033 1034 1016 998 1000 1002 1006 975 1017 1000 999 1006 1035 987 1017 1001 1003 1035 1018 1021 975 1003 1002 1006 1036 1035 1023 1024 1021 1005 1021 1024 1035 1021 987 799 1024 1023 993 1009 1010 1008 1025 1009 830 829 1026 1010 995 1011 996 995 1026 771 1037 982 845 996 770 1037 1038 1027 772 845 770 1038 1013 1028 982 772 771 1039 1040 1041 1027 982 1037 1014 1042 998 1028 1027 1038 1042 1031 999 1012 1028 1013 1031 1030 1001 998 1012 1014 1030 1043 1002 998 1042 999 1043 1036 1006 1001 999 1031 1036 1019 1035 1002 1001 1030 1044 1045 1046 1006 1002 1043 1019 1033 1032 1020 1047 1022 1021 1018 1023 1019 1018 1035 799 1023 1022 1009 1026 995 1025 830 1026 828 1048 829 996 1049 770 829 1049 996 1037 771 849 847 770 1049 1038 1037 1050 849 771 847 1013 1038 843 1050 1037 849 1014 1013 842 843 1038 1050 1042 1014 1051 842 1013 843 1031 1042 1052 842 1051 1014 1053 1054 1055 1052 1042 1051 1043 1030 1056 1029 1031 1052 1036 1043 1057 1056 1030 1029 1019 1036 1033 1057 1043 1056 1020 1019 1032 1033 1036 1057 1047 1020 1058 1059 1060 1058 1018 1020 1022 1032 1058 1020 799 1022 1047 1026 829 996 1061 1048 828 859 769 810 856 1048 1061 1062 1049 1048 849 1063 1050 1062 848 847 1050 1064 843 848 1063 849 1065 1066 1067 1064 1050 1063 842 1068 1051 1064 844 843 1052 1051 1069 1068 842 844 1052 1041 1029 1068 1069 1051 1029 1040 1056 1041 1052 1069 1056 1070 1057 1041 1040 1029 1057 1071 1033 1040 1070 1056 1072 1044 1073 1071 1057 1070 1032 1059 1058 1071 1034 1033 1074 1058 1060 1059 1032 1034 1075 1045 1060 799 1047 1074 1047 1058 1074 829 1048 1049 854 856 1061 1063 848 1076 1049 1062 847 856 1077 1062 1064 1063 1078 1077 1076 848 1064 1079 844 1076 1078 1063 1068 844 1080 1079 1064 1078 1068 1081 1069 1079 1080 844 1041 1069 1082 1080 1081 1068 1083 1084 1085 1081 1082 1069 1070 1040 1086 1082 1039 1041 1071 1070 1087 1039 1086 1040 1071 1088 1034 1086 1087 1070 1059 1034 1089 1088 1071 1087 1059 1075 1060 1088 1089 1034 1090 1060 1045 1089 1075 1059 1091 1092 799 799 1074 1090 1074 1060 1090 1048 856 1062 1093 855 854 1078 1076 857 1062 1077 848 855 860 1077 1094 857 858 1076 860 857 1080 1079 1095 1078 1094 1079 851 1095 852 1094 1095 1079 1082 1081 1096 1080 851 1081 1039 1082 1066 851 1096 1081 1086 1039 1097 1096 1066 1082 1087 1086 1085 1066 1097 1039 1098 1085 1084 1086 1097 1085 1089 1088 1099 1087 1098 1088 1053 1099 1054 1098 1099 1088 1045 1075 1046 1089 1053 1075 1091 1045 1044 1053 1046 1075 1092 1044 1072 799 1090 1091 1090 1045 1091 856 855 1077 859 1093 863 858 810 758 1077 860 1076 860 810 857 858 1100 1094 852 1095 1100 1078 857 1094 1095 1094 1100 746 850 852 1067 1096 850 1080 1095 851 1096 851 850 1065 1067 739 1096 1067 1066 1065 1083 1097 1097 1066 1065 1084 1083 774 1097 1083 1085 1084 1101 1098 1054 1099 1101 1087 1085 1098 1099 1098 1101 789 1055 1054 1073 1046 1055 1089 1099 1053 1046 1053 1055 1072 1073 792 1046 1073 1044 1072 1102 1092 1092 1102 799 1091 1044 1092 1093 859 855 768 859 863 758 757 858 860 859 810 757 753 858 858 753 1100 753 749 1100 749 747 852 749 852 1100 746 852 747 746 740 850 740 739 1067 740 1067 850 739 738 1065 738 737 1065 737 774 1083 737 1083 1065 774 778 1084 778 781 1084 1084 781 1101 781 782 1101 782 784 1054 782 1054 1101 789 1054 784 789 790 1055 790 792 1073 790 1073 1055 792 796 1072 796 795 1072 795 797 1102 795 1102 1072 799 1102 797 1103 1104 1105 1104 1106 1105 1103 1107 1104 1107 1108 1109 1109 1104 1107 1110 1109 1108 1111 1104 1109 1112 1113 1114 1115 1116 1117 1118 1119 1114 1114 1113 1118 1120 1119 1121 1118 1121 1119 1120 1122 1123 1122 1120 1121 1124 1125 1123 1123 1122 1124 1126 1125 1127 1124 1127 1125 1126 1128 1129 1128 1126 1127 1130 1131 1129 1129 1128 1130 1132 1131 1133 1130 1133 1131 1132 1134 1135 1134 1132 1133 1112 1136 1113 1136 1137 1138 1137 1136 1112 1139 1140 1138 1138 1137 1139 1141 1140 1142 1139 1142 1140 1141 1143 1144 1143 1141 1142 1145 1146 1144 1144 1143 1145 1147 1146 1148 1145 1148 1146 1147 1149 1150 1149 1147 1148 1151 1116 1150 1150 1149 1151 1151 1117 1116 1152 1153 1154 1155 1156 1157 1158 1159 1160 1161 1162 1163 1164 1165 1166 1167 1168 1169 1170 1171 1172 1173 1174 1175 1176 1177 1178 1179 1178 1180 1181 1176 1182 1176 1181 1177 1182 1183 1184 1184 1181 1182 1185 1186 1183 1184 1183 1186 1134 1185 1135 1185 1134 1186 1170 1179 1180 1178 1177 1180 1172 1171 1173 1179 1170 1172 1174 1166 1175 1171 1174 1173 1164 1169 1165 1166 1165 1175 1159 1168 1167 1167 1169 1164 1162 1158 1160 1158 1168 1159 1161 1163 1152 1162 1160 1163 1154 1153 1157 1161 1152 1154 1155 1115 1156 1153 1155 1157 1117 1156 1115 1187 1188 1189 1190 1191 1192 1193 1194 1189 1187 1189 1194 1193 1195 1196 1196 1194 1193 1196 1195 1197 1198 1199 1197 1197 1195 1198 1199 1200 1201 1200 1199 1198 1202 1203 1204 1200 1202 1201 1205 1206 1207 1208 1209 1210 1190 1192 1211 1212 1213 1191 1214 1215 1216 1217 1218 1219 1220 1221 1222 1223 1220 1224 1224 1215 1223 1220 1223 1221 1216 1218 1214 1224 1216 1215 1217 1219 1211 1214 1218 1217 1192 1191 1213 1211 1219 1190 1206 1205 1212 1212 1205 1213 1206 1208 1207 1209 1203 1210 1208 1210 1207 1202 1204 1201 1209 1204 1203 1225 1226 1227 1225 1228 1229 1230 1231 1225 1230 1225 1227 1231 1232 1225 1225 1233 1234 1232 1233 1225 1235 1236 1237 1234 1235 1225 1238 1237 1239 1240 1241 1237 1242 1239 1237 1243 1237 1238 1237 1241 1242 1244 1237 1236 1240 1237 1244 1237 1225 1235 1225 1237 1228</p>
        </triangles>
      </mesh>
    </geometry>
  </library_geometries>

  <library_visual_scenes>
    <visual_scene id="ID1">
      <node id="ID2">
        <instance_geometry url="#ID3">
          <bind_material>
            <technique_common>
              <instance_material symbol="ID9" target="#ID9"/>
            </technique_common>
          </bind_material>
        </instance_geometry>
      </node>
    </visual_scene>
  </library_visual_scenes>

  <scene>
    <instance_visual_scene url="#ID1"/>
  </scene>

  <library_nodes/>

</COLLADA>
