<?xml version="1.0" encoding="UTF-8" standalone="no" ?>
<COLLADA version="1.4.1" xmlns="http://www.collada.org/2005/11/COLLADASchema">

  <asset>
    <contributor>
      <authoring_tool>ONSHAPE BY PTC INC, 1.206</authoring_tool>
    </contributor>
    <created>2025-11-10T20:09:54</created>
    <modified>2025-11-10T20:09:54</modified>
    <unit meter="1" name="meters"/>
    <up_axis>Z_UP</up_axis>
  </asset>

  <library_materials>
    <material id="ID9" name="ID9">
      <instance_effect url="#ID9-fx"/>
    </material>
  </library_materials>

  <library_effects>
    <effect id="ID9-fx" name="ID9">
      <profile_COMMON>
        <technique sid="COMMON">
          <lambert>
            <diffuse>
              <color sid="diffuse">0.231373 0.376471 0.705882 1</color>
            </diffuse>
            <transparent opaque="A_ONE">
              <color sid="transparent">1 1 1 1</color>
            </transparent>
            <transparency>
              <float sid="transparency">1</float>
            </transparency>
          </lambert>
        </technique>
        <extra>
          <technique profile="OTHER">
            <double_sided>1</double_sided>
          </technique>
        </extra>
      </profile_COMMON>
    </effect>
  </library_effects>

  <library_geometries>
    <geometry id="ID3">
      <mesh>
        <source id="ID4">
          <float_array count="288" id="ID5">0.00368228 0.00230304 0.039541 0.00123869 0.00230304 0.0399488 0.015 0.00230304 0.025 -0.015 0.00230304 0 0.015 0.00230304 0 0.0147954 0.00230304 0.0274689 0.0141873 0.00230304 0.0298705 0.0131921 0.00230304 0.0321392 0.0118371 0.00230304 0.0342132 0.0101592 0.00230304 0.0360359 0.00820422 0.00230304 0.0375575 0.00602543 0.00230304 0.0387366 -0.015 0.00230304 0.025 -0.00123869 0.00230304 0.0399488 -0.0118371 0.00230304 0.0342132 -0.0131921 0.00230304 0.0321392 -0.00820422 0.00230304 0.0375575 -0.00602543 0.00230304 0.0387366 -0.0141873 0.00230304 0.0298705 -0.0147954 0.00230304 0.0274689 -0.0101592 0.00230304 0.0360359 -0.00368228 0.00230304 0.039541 0.015 -0.00230304 0.025 0.0141873 -0.00230304 0.0298705 0.0147954 -0.00230304 0.0274689 0.015 -0.00230304 0 -0.015 -0.00230304 0 0.0131921 -0.00230304 0.0321392 0.0118371 -0.00230304 0.0342132 0.0101592 -0.00230304 0.0360359 0.00602543 -0.00230304 0.0387366 0.00820422 -0.00230304 0.0375575 0.00123869 -0.00230304 0.0399488 0.00368228 -0.00230304 0.039541 -0.015 -0.00230304 0.025 -0.00820422 -0.00230304 0.0375575 -0.00602543 -0.00230304 0.0387366 -0.00123869 -0.00230304 0.0399488 -0.0141873 -0.00230304 0.0298705 -0.0147954 -0.00230304 0.0274689 -0.0131921 -0.00230304 0.0321392 -0.0118371 -0.00230304 0.0342132 -0.0101592 -0.00230304 0.0360359 -0.00368228 -0.00230304 0.039541 0.015 0.00230304 0 0.015 -0.00230304 0 0.015 -0.00230304 0.025 0.015 0.00230304 0.025 -0.015 0.00230304 0 -0.015 0.00230304 0.025 -0.015 -0.00230304 0.025 -0.015 -0.00230304 0 -0.015 -0.00230304 0 0.015 -0.00230304 0 0.015 0.00230304 0 -0.015 0.00230304 0 0.0141873 0.00230304 0.0298705 0.0147954 -0.00230304 0.0274689 0.0141873 -0.00230304 0.0298705 0.015 -0.00230304 0.025 0.0147954 0.00230304 0.0274689 0.015 0.00230304 0.025 0.0118371 -0.00230304 0.0342132 0.0101592 -0.00230304 0.0360359 0.0101592 0.00230304 0.0360359 0.0118371 0.00230304 0.0342132 0.0131921 0.00230304 0.0321392 0.0131921 -0.00230304 0.0321392 0.00368228 0.00230304 0.039541 0.00602543 -0.00230304 0.0387366 0.00368228 -0.00230304 0.039541 0.00602543 0.00230304 0.0387366 0.00820422 0.00230304 0.0375575 0.00820422 -0.00230304 0.0375575 -0.00368228 -0.00230304 0.039541 -0.00368228 0.00230304 0.039541 -0.00123869 -0.00230304 0.0399488 0.00123869 -0.00230304 0.0399488 -0.00123869 0.00230304 0.0399488 0.00123869 0.00230304 0.0399488 -0.00820422 -0.00230304 0.0375575 -0.0101592 -0.00230304 0.0360359 -0.0101592 0.00230304 0.0360359 -0.00602543 0.00230304 0.0387366 -0.00602543 -0.00230304 0.0387366 -0.00820422 0.00230304 0.0375575 -0.0118371 -0.00230304 0.0342132 -0.0131921 0.00230304 0.0321392 -0.0118371 0.00230304 0.0342132 -0.0141873 0.00230304 0.0298705 -0.0131921 -0.00230304 0.0321392 -0.0141873 -0.00230304 0.0298705 -0.0147954 0.00230304 0.0274689 -0.0147954 -0.00230304 0.0274689 -0.015 0.00230304 0.025 -0.015 -0.00230304 0.025</float_array>
          <technique_common>
            <accessor count="96" source="#ID5" stride="3">
              <param name="X" type="float"/>
              <param name="Y" type="float"/>
              <param name="Z" type="float"/>
            </accessor>
          </technique_common>
        </source>
        <source id="ID6">
          <float_array count="288" id="ID7">0 1 0 0 1 0 0 1 0 0 1 0 0 1 0 0 1 0 0 1 0 0 1 0 0 1 0 0 1 0 0 1 0 0 1 0 0 1 0 0 1 0 0 1 0 0 1 0 0 1 0 0 1 0 0 1 0 0 1 0 0 1 0 0 1 0 0 -1 0 0 -1 0 0 -1 0 0 -1 0 0 -1 0 0 -1 0 0 -1 0 0 -1 0 0 -1 0 0 -1 0 0 -1 0 0 -1 0 0 -1 0 0 -1 0 0 -1 0 0 -1 0 0 -1 0 0 -1 0 0 -1 0 0 -1 0 0 -1 0 0 -1 0 1 0 0 1 0 0 1 0 0 1 0 0 -1 0 0 -1 0 0 -1 0 0 -1 0 0 0 0 -1 0 0 -1 0 0 -1 0 0 -1 0.945817 -4.24421e-16 0.3247 0.986361 -4.42614e-16 0.164595 0.945817 -4.24421e-16 0.3247 1 -4.48735e-16 -1.19249e-08 0.986361 -4.42614e-16 0.164595 1 -4.48735e-16 -1.19249e-08 0.789141 -3.54115e-16 0.614213 0.677281 -3.0392e-16 0.735724 0.677281 -3.0392e-16 0.735724 0.789141 -3.54115e-16 0.614213 0.879474 -3.9465e-16 0.475947 0.879474 -3.9465e-16 0.475947 0.245486 -1.10158e-16 0.9694 0.401695 -1.80255e-16 0.915773 0.245486 -1.10158e-16 0.9694 0.401695 -1.80255e-16 0.915773 0.546948 -2.45435e-16 0.837166 0.546948 -2.45435e-16 0.837166 -0.245486 1.10158e-16 0.9694 -0.245486 1.10158e-16 0.9694 -0.0825793 3.70562e-17 0.996584 0.0825795 -3.70563e-17 0.996584 -0.0825793 3.70562e-17 0.996584 0.0825795 -3.70563e-17 0.996584 -0.546948 2.45435e-16 0.837166 -0.677282 3.0392e-16 0.735724 -0.677282 3.0392e-16 0.735724 -0.401695 1.80255e-16 0.915773 -0.401695 1.80255e-16 0.915773 -0.546948 2.45435e-16 0.837166 -0.789141 3.54115e-16 0.614213 -0.879474 3.9465e-16 0.475947 -0.789141 3.54115e-16 0.614213 -0.945817 4.24421e-16 0.3247 -0.879474 3.9465e-16 0.475947 -0.945817 4.24421e-16 0.3247 -0.986361 4.42614e-16 0.164595 -0.986361 4.42614e-16 0.164595 -1 4.48735e-16 4.37114e-08 -1 4.48735e-16 4.37114e-08</float_array>
          <technique_common>
            <accessor count="96" source="#ID7" stride="3">
              <param name="X" type="float"/>
              <param name="Y" type="float"/>
              <param name="Z" type="float"/>
            </accessor>
          </technique_common>
        </source>
        <vertices id="ID8">
          <input semantic="POSITION" source="#ID4"/>
          <input semantic="NORMAL" source="#ID6"/>
        </vertices>
        <triangles count="84" material="ID9">
          <input offset="0" semantic="VERTEX" source="#ID8"/>
          <p>0 2 1 3 2 4 5 2 6 7 2 8 7 6 2 8 2 9 2 11 10 9 2 10 12 13 1 11 2 0 12 15 14 16 17 12 18 15 12 12 19 18 12 20 16 12 14 20 21 12 17 12 1 2 13 12 21 2 3 12 22 24 23 22 26 25 27 28 22 27 22 23 28 29 22 22 31 30 29 31 22 22 33 32 30 33 22 34 36 35 37 34 32 38 39 34 34 41 40 42 41 34 38 34 40 34 35 42 43 34 37 36 34 43 34 22 32 22 34 26 44 46 45 44 47 46 48 50 49 50 48 51 52 54 53 54 52 55 56 58 57 59 61 60 62 64 63 65 67 66 68 70 69 71 73 72 74 76 75 77 79 78 80 82 81 83 85 84 86 88 87 88 86 81 89 90 87 86 87 90 89 92 91 91 90 89 93 92 94 92 93 91 82 88 81 93 94 95 82 80 85 74 83 84 84 85 80 76 78 75 74 75 83 77 70 79 76 77 78 68 69 71 79 70 68 72 73 63 71 69 73 65 64 62 64 72 63 58 66 67 67 65 62 57 60 56 58 56 66 60 57 59</p>
        </triangles>
      </mesh>
    </geometry>
  </library_geometries>

  <library_visual_scenes>
    <visual_scene id="ID1">
      <node id="ID2">
        <instance_geometry url="#ID3">
          <bind_material>
            <technique_common>
              <instance_material symbol="ID9" target="#ID9"/>
            </technique_common>
          </bind_material>
        </instance_geometry>
      </node>
    </visual_scene>
  </library_visual_scenes>

  <scene>
    <instance_visual_scene url="#ID1"/>
  </scene>

  <library_nodes/>

</COLLADA>
